<?xml version="1.0" standalone="no"?>
<!DOCTYPE svg PUBLIC "-//W3C//DTD SVG 1.1//EN" "http://www.w3.org/Graphics/SVG/1.1/DTD/svg11.dtd" >
<svg xmlns="http://www.w3.org/2000/svg">
<metadata>
Created by FontForge 20120731 at Mon Jun 27 21:06:44 2016
 By admin
</metadata>
<defs>
<font id="iconfont" horiz-adv-x="1024" >
  <font-face 
    font-family="iconfont"
    font-weight="500"
    font-stretch="normal"
    units-per-em="1024"
    panose-1="2 0 6 3 0 0 0 0 0 0"
    ascent="896"
    descent="-128"
    x-height="792"
    bbox="-0.25 -212 1636 896.161"
    underline-thickness="50"
    underline-position="-100"
    unicode-range="U+0078-E697"
  />
<missing-glyph horiz-adv-x="374" 
d="M34 0v682h272v-682h-272zM68 34h204v614h-204v-614z" />
    <glyph glyph-name=".notdef" horiz-adv-x="374" 
d="M34 0v682h272v-682h-272zM68 34h204v614h-204v-614z" />
    <glyph glyph-name=".null" horiz-adv-x="0" 
 />
    <glyph glyph-name="nonmarkingreturn" horiz-adv-x="341" 
 />
    <glyph glyph-name="x" unicode="x" horiz-adv-x="1001" 
d="M281 543q-27 -1 -53 -1h-83q-18 0 -36.5 -6t-32.5 -18.5t-23 -32t-9 -45.5v-76h912v41q0 16 -0.5 30t-0.5 18q0 13 -5 29t-17 29.5t-31.5 22.5t-49.5 9h-133v-97h-438v97zM955 310v-52q0 -23 0.5 -52t0.5 -58t-10.5 -47.5t-26 -30t-33 -16t-31.5 -4.5q-14 -1 -29.5 -0.5
t-29.5 0.5h-32l-45 128h-439l-44 -128h-29h-34q-20 0 -45 1q-25 0 -41 9.5t-25.5 23t-13.5 29.5t-4 30v167h911zM163 247q-12 0 -21 -8.5t-9 -21.5t9 -21.5t21 -8.5q13 0 22 8.5t9 21.5t-9 21.5t-22 8.5zM316 123q-8 -26 -14 -48q-5 -19 -10.5 -37t-7.5 -25t-3 -15t1 -14.5
t9.5 -10.5t21.5 -4h37h67h81h80h64h36q23 0 34 12t2 38q-5 13 -9.5 30.5t-9.5 34.5q-5 19 -11 39h-368zM336 498v228q0 11 2.5 23t10 21.5t20.5 15.5t34 6h188q31 0 51.5 -14.5t20.5 -52.5v-227h-327z" />
    <glyph glyph-name="uniE600" unicode="&#xe600;" 
d="M114 542q27 46 73.5 84.5t106.5 66t130 43t145 15.5q101 0 190 -25.5t171 -84.5l1 -176q-55 42 -116.5 72t-126 44.5t-132 11t-132.5 -29.5q23 -26 37.5 -60.5t14.5 -73.5q0 -41 -16 -77.5t-42.5 -63t-63 -42.5t-77 -16t-77 16t-63 42.5t-42.5 63t-16 77.5q0 64 35 113z
M276.5 390q17.5 0 29 12t11.5 29.5t-11.5 29t-29 11.5t-29 -11.5t-11.5 -29t11.5 -29.5t29 -12zM751.5 303q-17.5 0 -29 -11.5t-11.5 -29t11.5 -29.5t29 -12t29.5 12t12 29.5t-12 29t-29.5 11.5zM914 152q-27 -47 -73.5 -85t-106.5 -66t-130 -43t-145 -15q-101 0 -190 25
t-171 84l-1 176q56 -42 117 -72t125.5 -44.5t131.5 -11t133 29.5q-23 27 -37.5 61t-14.5 73q0 41 16 77.5t42.5 63t63 42.5t77.5 16t77 -16t63 -42.5t42.5 -63t15.5 -77.5q0 -32 -9 -60.5t-26 -51.5z" />
    <glyph glyph-name="uniE601" unicode="&#xe601;" horiz-adv-x="1082" 
d="M31 352q0 25 17 42.5t42 17.5h421v-60v-390q0 -26 -17.5 -43t-43.5 -17h-360q-25 0 -42 17t-17 43v390zM992 412q24 0 42 -17.5t18 -42.5v-390q0 -26 -18 -43t-42 -17h-361q-24 0 -42 17t-18 43v450h421zM1021 683q26 0 43.5 -18t17.5 -43v-89q0 -26 -17.5 -43t-43.5 -17
h-450v149q0 15 6.5 28t17.5 21q-11 -8 -24.5 -13.5t-30.5 -5.5q-29 0 -53 19q24 -17 24 -49v-149h-451q-24 0 -42 17t-18 43v89q0 25 18 43t42 18h390q22 0 36 -12l-12 12h-287q-28 0 -47 20.5t-19 48.5v71q0 28 19 49t47 21q38 7 76 -1.5t74 -24.5t68 -37t59 -42
q11 21 31.5 32.5t44.5 11.5q27 0 47.5 -12t31.5 -33q24 19 55 38t66 35t74.5 25t80.5 8q27 0 46.5 -21t19.5 -49v-71q0 -28 -19.5 -48.5t-46.5 -20.5h-286l-6 -6q-3 -3 -8 -6q16 12 36 12h390zM661 713h152q11 0 20 8.5t9 21.5v30q0 12 -9 20.5t-20 8.5l-152 -74v-15z
M421 728l-152 74q-12 0 -20 -8.5t-8 -20.5v-30q0 -13 8 -21.5t20 -8.5h152v15z" />
    <glyph glyph-name="uniE602" unicode="&#xe602;" horiz-adv-x="1025" 
d="M466.5 595q-18.5 0 -31.5 13t-13 32v30q0 7 3.5 13.5t8.5 14.5t10 18t7 26q6 18 4 33q-1 8 -4 16q0 18 13.5 31.5t32.5 13.5q9 0 17.5 0.5t14.5 -1.5t10 -9t4 -21q0 -19 -3 -27.5t-6.5 -14t-8 -11.5t-7.5 -16.5t-5 -29.5t0 -52v-29q0 -8 -14 -19t-32.5 -11zM287 595
q-20 0 -32.5 13t-12.5 32v30q0 7 3.5 13.5t8.5 14.5t10 18t7 26q2 9 2.5 17.5t-0.5 15.5l-2 16q0 18 13.5 31.5t31.5 13.5q10 0 18 0.5t14.5 -1.5t10 -9t3.5 -21q0 -27 -5.5 -35.5t-11.5 -18t-11 -29t-3 -68.5v-29q0 -8 -13 -19t-31 -11zM782 474q52 0 96.5 -12.5t76.5 -39
t50.5 -65t18.5 -90.5t-18.5 -92t-50.5 -67t-76.5 -41.5t-96.5 -14.5h-29q-9 -58 -24 -107t-36 -73h-608q-18 8 -30.5 42t-22 84t-15 111.5t-9.5 124.5q-9 148 -8 331h782v-35q0 -14 -0.5 -29.5t0.5 -26.5zM753 114q36 0 71 10t62.5 30t44.5 48.5t17 64.5q0 73 -46 110.5
t-120 37.5q0 -36 -2.5 -79.5t-6.5 -86t-9.5 -79t-10.5 -56.5z" />
    <glyph glyph-name="uniE603" unicode="&#xe603;" 
d="M1024 683q0 -71 -46 -122q46 -89 46 -193q0 -97 -40 -182t-109.5 -148t-163 -99t-199.5 -36t-199.5 36t-162.5 99t-109.5 148t-40.5 182q0 104 46 193q-46 51 -46 122q0 38 14 71t37.5 58.5t55.5 39.5t68 14q43 0 79 -18.5t59 -49.5q46 17 96.5 26.5t102.5 9.5
t102.5 -9.5t96.5 -26.5q24 31 59.5 49.5t78.5 18.5q37 0 68.5 -14t55 -39.5t37.5 -58.5t14 -71zM206 268q10 0 18.5 10.5t15.5 29t10.5 42.5t3.5 51.5t-3.5 51.5t-10.5 42t-15.5 28.5t-18.5 10.5q-9 0 -18 -10.5t-15.5 -28.5t-10.5 -42t-4 -51.5t4 -51.5t10.5 -42.5
t15.5 -29t18 -10.5zM512 -32q53 0 99.5 13.5t81.5 36t55 52.5t20 65q0 34 -20 64t-55 52.5t-81.5 36t-99.5 13.5t-99.5 -13.5t-81.5 -36t-55 -52.5t-20 -64q0 -35 20 -65t55 -52.5t81.5 -36t99.5 -13.5zM818 268q10 0 19 10.5t15.5 29t10 42.5t3.5 51.5t-3.5 51.5t-10 42
t-15.5 28.5t-19 10.5q-9 0 -17.5 -10.5t-15.5 -28.5t-11 -42t-4 -51.5t4 -51.5t11 -42.5t15.5 -29t17.5 -10.5zM512 236q40 0 68 -10t28 -24.5t-28 -24t-68 -9.5t-68 9.5t-28 24t28 24.5t68 10z" />
    <glyph glyph-name="uniE604" unicode="&#xe604;" 
d="M917 145q16 -36 16 -74t-14.5 -73t-41 -62.5t-63.5 -43.5q-33 -14 -66 -15.5t-64.5 8t-58.5 27.5t-46 46q-4 4 -6.5 8.5t-5.5 10.5q-2 2 -3 4q-8 24 -16.5 61.5t-8.5 79.5q0 10 -4 26.5t-10 36.5t-13.5 42t-15.5 43q-18 -43 -30.5 -84.5t-12.5 -66.5q0 -40 -8 -77
t-16 -61l-2 -4l-2 -5q-18 -32 -46 -54.5t-61 -34.5t-69 -11t-71 15q-37 16 -64 44t-41 62.5t-14 73t16 74.5q20 50 59.5 79.5t88.5 37.5q-1 0 -1 1v-1h3q18 2 35.5 2t35.5 -4q31 -6 50.5 -5.5t35 13t31.5 39t40 71.5l-7 14q-3 6 -5 11q-3 6 -4 10q-65 74 -107 135
t-65.5 109.5t-33 85.5t-8.5 64q2 63 47 93l227 -437l225 437q45 -31 46 -94q0 -27 -8.5 -64t-33 -85.5t-65.5 -110t-106 -135.5q-1 -5 -4 -9l-5 -10q-3 -6 -6 -13q22 -45 38 -70.5t32 -38t36 -13t51 5.5q18 4 36 4t35 -2q1 0 2 1l-1 -1q49 -8 88.5 -37.5t59.5 -78.5zM351 26
q8 19 8 39.5t-7.5 39.5t-22 34t-33.5 24q-21 8 -41 8t-39 -7.5t-34.5 -22t-24.5 -33.5q-8 -21 -8 -41.5t7.5 -39t22 -33.5t34.5 -23.5t41 -8.5t39.5 8t34 21.5t23.5 34.5zM778 -25q21 9 35 23t22 32.5t8 39t-8 41.5q-18 40 -58 55.5t-81 -0.5q-20 -8 -34.5 -23.5t-22 -34
t-7.5 -39t8 -40t23.5 -33.5t34 -22t39.5 -8t41 9z" />
    <glyph glyph-name="uniE605" unicode="&#xe605;" horiz-adv-x="1054" 
d="M543 743q45 63 100 92.5t112 30.5t111 -23t95 -68.5t67 -106.5t26 -137q0 -77 -29.5 -145t-74.5 -126t-99 -108.5t-105 -91.5q-34 -28 -61.5 -49.5t-48 -39t-36 -31t-29.5 -24.5q-8 6 -14 19q-5 12 -9.5 33.5t-4.5 55.5q0 44 4.5 70t9.5 40q6 17 14 22q14 11 31.5 25
t43.5 35q28 23 57 50t53.5 58.5t40.5 68.5t16 80q0 49 -20.5 88.5t-51.5 63t-69.5 28.5t-75.5 -12q-7 -17 -21.5 -29t-32.5 -16q-3 -5 -7 -9.5t-8 -11.5q-8 14 -14 21q-19 4 -33.5 16t-21.5 29q-37 17 -75 12t-69.5 -29t-51.5 -63.5t-20 -89.5q0 -42 15.5 -79t40.5 -68
t54.5 -58t56.5 -50q25 -21 42.5 -35.5t30.5 -25.5q8 -5 15 -22q5 -14 10 -39.5t5 -69.5q0 -33 -5 -54t-10 -33q-7 -15 -15 -22q-13 11 -29 24.5t-36.5 30.5t-47 39t-61.5 51q-49 42 -103.5 92t-100 107.5t-75 125t-29.5 144.5q0 75 25.5 137.5t67 107t96 69t111 23.5
t112 -30.5t100.5 -92.5q10 2 15 2t16 -2z" />
    <glyph glyph-name="uniE606" unicode="&#xe606;" 
d="M811 795q61 -53 97 -131.5t36 -187.5q0 -80 -20.5 -161.5t-56.5 -155.5l-29 40q-11 10 -21 1q-9 -13 -1 -24l37 -46q-31 -55 -69.5 -102.5t-83.5 -82t-95 -54t-103 -19.5q-52 0 -102 19t-94 52t-82.5 79.5t-68.5 100.5l42 46q4 4 4 10t-5 10q-5 5 -11 5t-10 -6l-35 -36
q-38 75 -59.5 158.5t-21.5 165.5q0 109 36 187.5t99 131.5l32 -36q5 -4 11 -4.5t11 4.5q5 4 5.5 9.5t-3.5 10.5l-33 35q58 41 130.5 61.5t154.5 20.5q83 0 155 -20.5t130 -63.5l-31 -40q-8 -12 0 -23q12 -10 20 1zM286 414q44 0 74.5 22t30.5 53t-30.5 53t-74.5 22t-75 -22
t-31 -53t31 -53t75 -22zM497 52q44 0 74.5 13.5t30.5 31.5q0 20 -30.5 32.5t-74.5 12.5t-75 -12.5t-31 -32.5q0 -18 31 -31.5t75 -13.5zM708 414q44 0 74.5 22t30.5 53t-30.5 53t-74.5 22t-75 -22t-31 -53t31 -53t75 -22z" />
    <glyph glyph-name="uniE607" unicode="&#xe607;" 
d="M812 896q26 0 43.5 -17.5t17.5 -41.5v-906q0 -25 -17.5 -42t-43.5 -17h-602q-25 0 -42 17t-17 42v906q0 24 17 41.5t42 17.5h602zM407 837q-16 0 -16 -17q0 -5 4 -10t12 -5h181q6 0 10.5 5t4.5 10q0 7 -4.5 12t-10.5 5h-181zM512 -98q25 0 43 18t18 42q0 26 -18 43.5
t-43 17.5q-26 0 -43 -17.5t-17 -43.5q0 -24 17 -42t43 -18zM812 685q0 26 -17.5 43t-41.5 17h-483q-25 0 -42.5 -17t-17.5 -43v-571q0 -26 17.5 -44t42.5 -18h483q24 0 41.5 18t17.5 44v571z" />
    <glyph glyph-name="uniE608" unicode="&#xe608;" 
d="M922 687q17 -24 9 -72q-3 -20 -13 -46.5t-28.5 -61.5t-47.5 -78.5t-72 -96.5q-7 -23 -11 -42q-3 -18 -2.5 -35.5t11.5 -30.5q7 -8 20 -18.5t27 -28t28 -42.5t24 -61.5t13 -86t-4 -115.5h-717q-8 66 -4.5 115.5t13.5 85.5t24.5 61t29 42t26.5 28t18 20q8 13 9 30t-1 35
q-3 19 -8 41q-44 53 -74.5 96.5t-50.5 79t-31 62.5t-15 47q-11 49 5 74q58 31 105 42.5t82 13.5q41 3 73 -5q21 67 47.5 99t51.5 45q28 14 59 11q29 3 56 -11q24 -13 49.5 -45.5t46.5 -99.5q30 7 70 5q34 -2 80 -13.5t102 -43.5z" />
    <glyph glyph-name="uniE609" unicode="&#xe609;" 
d="M1024 399q-83 11 -168 54t-158.5 116.5t-116 158.5t-54.5 168q96 -3 185.5 -40t162 -109.5t110 -162t39.5 -185.5zM465 894q11 -95 57.5 -191t129.5 -179t179 -130t191 -58q-8 -87 -44.5 -167.5t-103 -147t-147 -103t-167.5 -44.5q-11 95 -58 191t-130 179t-179 129.5
t-191 57.5q8 87 45 168t103 147t147 103t168 45zM0 369q83 -12 168 -54.5t158.5 -116t116.5 -158.5t54 -168q-96 2 -185.5 39.5t-162 110t-109.5 162t-40 185.5z" />
    <glyph glyph-name="uniE60A" unicode="&#xe60a;" 
d="M721 653q47 -28 86.5 -67.5t67 -88t43 -103.5t15.5 -114q0 -92 -34.5 -166.5t-94 -128.5t-138 -83.5t-168.5 -29.5q-91 0 -170.5 29.5t-139 83.5t-94 128.5t-34.5 166.5q0 58 15 112.5t42.5 102.5t66.5 88t86 68q-2 13 -1.5 28t2.5 36q0 18 18 44t49 50.5t72 40.5t88 16
q46 0 87 -16t71.5 -40.5t48 -50.5t17.5 -44q2 -19 1.5 -34t-2.5 -28zM408 802q-23 -11 -33.5 -27.5t-5.5 -28.5q6 -11 26 -10t41 14q23 11 34 27.5t5 27.5t-26 10t-41 -13zM497.5 -37q71.5 0 134 22.5t109.5 64t74.5 100t27.5 130.5q0 56 -17.5 107.5t-48.5 94t-74 75
t-94 49.5q-23 5 -50.5 11.5t-55.5 7.5h-5h-6q-22 -1 -42.5 -4.5t-40.5 -7.5q-56 -14 -103.5 -45.5t-82 -76t-53.5 -98.5t-19 -113q0 -72 27 -130.5t74 -100t110.5 -64t135 -22.5z" />
    <glyph glyph-name="uniE60B" unicode="&#xe60b;" 
d="M1022 60q-1 -10 0 -27.5t-3 -26.5q-25 -11 -52 -18t-55.5 -11.5t-57 -6.5t-54.5 -3q-65 -4 -129.5 -4t-128.5 2q-20 1 -32 3t-24 18q-9 11 -16.5 21.5t-14.5 22.5q-18 27 -32 57l-29 59q-11 21 -26 49t-32 58t-33.5 57t-31.5 44q-6 7 -13 7.5t-15 -2.5l-17 -4
q-8 -3 -16 -1q-13 -26 -19.5 -53.5t-10 -55t-6.5 -56t-10 -57.5q-7 -32 -9.5 -63t-2.5 -63q-1 -2 -0.5 -5.5t0.5 -5.5q-7 -2 -14 -2h-12q-6 0 -18.5 -1.5t-17.5 1.5q-1 8 0 14.5t0 15.5q-5 59 -9.5 120.5t-13 122.5t-21.5 119.5t-36 114.5q-12 37 -8.5 74.5t18 73.5t36 68.5
t44.5 58.5q100 -93 195.5 -190t190.5 -195q22 -21 42.5 -43.5t43 -43t48 -37t55.5 -26.5q27 -10 57 -10q8 -1 16.5 -1t16.5 2q4 7 8.5 12.5t10.5 10.5q12 10 26 16t29 6t29.5 -5.5t24.5 -17.5q15 -21 15 -43q0 -7 1 -10t2.5 -6t5 -5.5t7.5 -8.5q6 -9 6 -20q10 -4 20 -13
q22 -17 35 -45q2 -6 4 -12.5t3 -12.5q12 0 19 -4l6 -6q2 -4 5 -7z" />
    <glyph glyph-name="uniE60C" unicode="&#xe60c;" 
d="M1024 -8q0 -12 -11.5 -32.5t-34.5 -39.5t-56.5 -33.5t-77.5 -14.5h-663q-45 0 -78.5 14.5t-56.5 33.5t-34.5 39.5t-11.5 32.5l90 482q0 26 18 43.5t43 17.5q7 -3 16 -6q8 -2 19 -5l25 -7v80q0 61 23.5 116t64.5 95.5t96 64t117 23.5t117 -23.5t96 -64t64.5 -95.5
t23.5 -116v-80l25 7q11 3 19 5q9 3 16 6q26 0 43.5 -17.5t17.5 -43.5zM241 324q25 0 42.5 17t17.5 43q0 17 -8 30.5t-22 21.5v-52h-60v52q-30 -16 -30 -52q0 -26 17.5 -43t42.5 -17zM271 503q51 -11 113 -20t128 -9t128 9t114 20v85q0 51 -19 96t-52 79t-77 53.5t-94 19.5
t-93.5 -19.5t-76.5 -53.5t-52 -79t-19 -96v-85zM783 324q26 0 43.5 17t17.5 43q0 17 -8.5 30.5t-22.5 21.5v-52h-59v52q-15 -8 -23 -21.5t-8 -30.5q0 -26 18 -43t42 -17z" />
    <glyph glyph-name="uniE60D" unicode="&#xe60d;" 
d="M663 444q10 -5 30 -16t46 -31.5t57.5 -53t65 -81t67.5 -115t64 -154.5q-15 -9 -31 -21.5t-31.5 -22t-31.5 -15.5t-33 -3q-44 10 -78 9t-63 -8t-53.5 -17t-47.5 -20t-46 -16.5t-50 -6.5q-57 1 -110 17t-101.5 32.5t-90 25t-74.5 -4.5q-21 -9 -42.5 -1.5t-38.5 18.5
q-21 13 -40 34q38 117 86 199.5t92.5 136.5t79 81.5t43.5 33.5t10 25.5t-1 40.5q-3 25 -9 54l-151 302l180 30q28 -52 54 -79t50 -37t45.5 -5.5t40.5 18.5q43 30 81 103l181 -30q-20 -48 -45 -99q-20 -44 -47.5 -97.5t-57.5 -105.5q-13 -35 -14.5 -57.5t1.5 -36.5
q4 -16 13 -26z" />
    <glyph glyph-name="uniE60E" unicode="&#xe60e;" horiz-adv-x="1000" 
d="M941 42l-212 216q-5 6 -12 8q73 98 73 221q0 98 -47.5 182t-129.5 132.5t-179 48.5t-179 -48.5t-129.5 -132.5t-47.5 -182.5t47.5 -182.5t129.5 -132.5t179 -48.5q134 0 235 91q3 -6 7 -10l212 -217q11 -11 26.5 -11t26.5 11.5t11 27t-11 27.5zM434 180q-124 0 -212 90
t-88 217t88 216.5t212 89.5t212 -89.5t88 -216.5t-88 -217t-212 -90z" />
    <glyph glyph-name="uniE60F" unicode="&#xe60f;" 
d="M891 148h-508q-14 0 -24 -10t-10 -24.5t10 -24.5t24 -10h508q14 0 24.5 10t10.5 24.5t-10.5 24.5t-24.5 10zM891 418h-508q-14 0 -24 -10t-10 -24.5t10 -24.5t24 -10h508q14 0 24.5 10t10.5 24.5t-10.5 24.5t-24.5 10zM383 619h508q14 0 24.5 10t10.5 24.5t-10.5 25
t-24.5 10.5h-508q-14 0 -24 -10.5t-10 -25t10 -24.5t24 -10zM220 732h-86q-15 0 -25 -10t-10 -25v-86q0 -15 10 -25t25 -10h86q14 0 24.5 10t10.5 25v86q0 15 -10.5 25t-24.5 10zM220 462h-86q-15 0 -25 -10.5t-10 -24.5v-87q0 -14 10 -24t25 -10h86q14 0 24.5 10t10.5 24
v87q0 14 -10.5 24.5t-24.5 10.5zM220 191h-86q-15 0 -25 -10t-10 -24v-87q0 -14 10 -24.5t25 -10.5h86q14 0 24.5 10.5t10.5 24.5v87q0 14 -10.5 24t-24.5 10z" />
    <glyph glyph-name="uniE610" unicode="&#xe610;" 
d="M683 848h-341q-32 0 -54.5 -22.5t-22.5 -54.5v-775q0 -32 22.5 -54.5t54.5 -22.5h341q32 0 54.5 22.5t22.5 54.5v775q0 32 -22.5 54.5t-54.5 22.5zM466 786h93q6 0 10.5 -4.5t4.5 -11t-4.5 -11t-10.5 -4.5h-93q-7 0 -11.5 4.5t-4.5 11t4.5 11t11.5 4.5zM512.5 -50
q-19.5 0 -33 13.5t-13.5 33t13.5 33t33 13.5t33 -13.5t13.5 -33t-13.5 -33t-33 -13.5zM729 74h-433v619h433v-619z" />
    <glyph glyph-name="uniE611" unicode="&#xe611;" 
d="M0 -128h512v1024h-512v-1024zM320 768h128v-128h-128v128zM320 512h128v-128h-128v128zM320 256h128v-128h-128v128zM64 768h128v-128h-128v128zM64 512h128v-128h-128v128zM64 256h128v-128h-128v128zM576 576h448v-64h-448v64zM576 -128h128v256h192v-256h128v576h-448
v-576z" />
    <glyph glyph-name="uniE612" unicode="&#xe612;" 
d="M92 832h359q11 -1 17 -7.5t8.5 -21t3 -24t0 -30t-0.5 -25.5v-196q0 -8 0.5 -26t0.5 -27.5t-2 -22.5t-6.5 -20.5t-13 -11t-25 -4t-39.5 0.5t-28 1h-191q-7 0 -27 -0.5t-30 -0.5t-24 2.5t-21 9t-9 16.5v360q8 21 28 27v0zM141 751v-256h259v260h-258q-1 -1 -1 -4v0z
M574 832h360q23 -9 27 -32v-350q-5 -25 -25 -31q-11 -3 -26 -3t-35.5 1t-28.5 1h-185q-8 0 -29 -1t-37 -1t-26 3q-9 3 -14.5 11t-7 22t-2 24.5t0 30t0.5 26.5v184q0 8 -0.5 29t-0.5 31.5t2.5 24.5t9 21t17.5 9v0zM624 751v-256h259v260h-258q-2 -1 -1 -4v0zM259 676
q27 5 46 -10t20 -40q0 -31 -26 -46.5t-53 -2.5q-19 10 -25.5 32t4 42.5t34.5 24.5v0zM742 676q44 8 59 -29q13 -32 -9 -58q-18 -22 -50 -16q-26 4 -36 27.5t0 47t36 28.5v0zM449 -65h-356q-23 7 -29 29v358q7 21 24 26q11 3 26 3t35.5 -1t29.5 -1h184q8 0 28.5 1.5t36.5 1
t27 -3.5q9 -3 15 -10.5t8 -21.5t2 -24.5t-0.5 -30t-0.5 -26.5v-189q0 -7 0.5 -28t0 -30.5t-3 -23.5t-9.5 -20.5t-18 -8.5v0zM141 268v-255h259v259h-258q-1 0 -1 -4v0zM961 317v-100q-1 -8 -1 -53v-55h-257v58q-5 2 -38.5 1.5t-40.5 -0.5q-2 -19 -1.5 -115t-0.5 -118h-47
q-11 3 -18 10.5t-9.5 21.5t-2.5 24.5t0.5 30.5t0.5 29v184q0 8 -1 29t-0.5 37t3.5 26q1 5 4 9t9 6.5t10 4t13 2t13 0.5h15h15h175v-158h81q0 14 -0.5 79.5t1.5 78.5q20 1 37 0.5t28 -8.5t12 -24v0zM265 195q30 3 48.5 -20t7.5 -53q-10 -27 -39 -31.5t-50 15t-12.5 52.5
t45.5 37v0zM790 -65h-87v47q0 39 1 46h86v-93v0zM961 28v-61q-5 -24 -29 -32h-61q0 9 -0.5 47.5t1.5 45.5h89v0zM961 28z" />
    <glyph glyph-name="uniE613" unicode="&#xe613;" 
d="M768 173q0 -21 -12 -41t-30 -20h-469q-18 0 -33.5 20.5t-15.5 40.5v281q0 19 14.5 30.5t34.5 11.5h48l108 144h-296q-21 0 -37 -13t-16 -32v-562q0 -19 16.5 -34t36.5 -15h749q20 0 33 14.5t13 34.5v341l-144 -123v-78zM375 259q1 -2 2 -6t1 -5q31 90 95.5 151t147.5 77
q9 1 26.5 2.5t28 1.5t12.5 -1v-159h38l234 244l-234 220h-38v-136h-10q-10 -1 -24.5 -2t-21.5 -2q-85 -16 -150 -73t-94 -140t-13 -172z" />
    <glyph glyph-name="uniE614" unicode="&#xe614;" 
d="M808 511q6 93 -52 162q-38 46 -98 72.5t-125 26.5q-98 0 -175 -60t-98 -153q-82 -2 -139 -58.5t-57 -135.5q0 -77 56 -133.5t135 -60.5h9v50h-9q-59 3 -100 45t-41 99q0 60 44 102.5t106 42.5q7 0 14 -1l23 -2l4 23q11 82 76.5 137t151.5 55q54 0 103.5 -22t81.5 -59
q53 -64 37 -152l-7 -35l36 6q7 2 15 2q39 0 75 -27.5t36 -72.5q0 -57 -41 -98t-100 -43v-50q80 3 135.5 58.5t55.5 132.5q0 62 -46.5 104t-105.5 45zM426 291h52v-171h-52v171zM306 342h52v-171h-52v171zM547 342h52v-171h-52v171zM666 291h52v-171h-52v171zM287 122h71v-71
h-71v71zM409 69h71v-72h-71v72zM528 122h71v-71h-71v71zM649 69h71v-72h-71v72z" />
    <glyph glyph-name="uniE615" unicode="&#xe615;" 
d="M896 576h-512q-13 0 -22.5 9.5t-9.5 22.5t9.5 22.5t22.5 9.5h512q13 0 22.5 -9.5t9.5 -22.5t-9.5 -22.5t-22.5 -9.5zM896 352h-512q-13 0 -22.5 9.5t-9.5 22.5t9.5 22.5t22.5 9.5h512q13 0 22.5 -9.5t9.5 -22.5t-9.5 -22.5t-22.5 -9.5zM896 128h-512q-13 0 -22.5 9.5
t-9.5 22.5t9.5 22.5t22.5 9.5h512q13 0 22.5 -9.5t9.5 -22.5t-9.5 -22.5t-22.5 -9.5zM192 512q-40 0 -68 28t-28 68t28 68t68 28t68 -28t28 -68t-28 -68t-68 -28zM192 640q-13 0 -22.5 -9.5t-9.5 -22.5t9.5 -22.5t22.5 -9.5t22.5 9.5t9.5 22.5t-9.5 22.5t-22.5 9.5zM192 288
q-40 0 -68 28t-28 68t28 68t68 28t68 -28t28 -68t-28 -68t-68 -28zM192 416q-13 0 -22.5 -9.5t-9.5 -22.5t9.5 -22.5t22.5 -9.5t22.5 9.5t9.5 22.5t-9.5 22.5t-22.5 9.5zM192 64q-40 0 -68 28t-28 68t28 68t68 28t68 -28t28 -68t-28 -68t-68 -28zM192 192q-13 0 -22.5 -9.5
t-9.5 -22.5t9.5 -22.5t22.5 -9.5t22.5 9.5t9.5 22.5t-9.5 22.5t-22.5 9.5z" />
    <glyph glyph-name="uniE616" unicode="&#xe616;" 
d="M826 341l-288 289q-9 9 -23 9l-1 1h-2q-7 0 -13 -3q-6 -2 -11 -7l-259 -259q-10 -9 -10 -22.5t9.5 -23t22.5 -9.5t23 10l206 206v-564q0 -13 9.5 -22.5t22.5 -9.5t22.5 9.5t9.5 22.5v565l236 -237q10 -10 23 -10t22.5 9.5t9.5 22.5t-9 23zM864 704h-704q-13 0 -22.5 9.5
t-9.5 22.5t9.5 22.5t22.5 9.5h704q13 0 22.5 -9.5t9.5 -22.5t-9.5 -22.5t-22.5 -9.5z" />
    <glyph glyph-name="uniE617" unicode="&#xe617;" 
d="M707 298h55q12 0 20 -8.5t8 -20.5v-289q0 -13 -8 -21.5t-20 -8.5h-55q-12 0 -20.5 8.5t-8.5 21.5v289q0 12 8.5 20.5t20.5 8.5zM260 298h55q12 0 20 -8.5t8 -20.5v-289q0 -13 -8 -21.5t-20 -8.5h-55q-12 0 -20 8.5t-8 21.5v289q0 12 8 20.5t20 8.5zM902 66
q-23 0 -39.5 17t-16.5 41v58v174q0 95 -45 175t-122 126.5t-168 46.5t-168.5 -46.5t-122 -126.5t-44.5 -175v-174v-58q0 -24 -16.5 -41t-39.5 -17t-39.5 17t-16.5 41v58v174q0 94 35.5 180t95 148t142.5 99t174 37t173.5 -37t142.5 -99t95.5 -148t35.5 -180v-174v-58
q0 -24 -16.5 -41t-39.5 -17z" />
    <glyph glyph-name="uniE618" unicode="&#xe618;" 
d="M455 389.5q0 -24.5 16.5 -42t40 -17.5t39.5 17.5t16 42t-16 42t-39.5 17.5t-40 -17.5t-16.5 -42zM511.5 212q-69.5 0 -119 52t-49.5 125.5t49.5 125.5t119 52t119 -52t49.5 -125.5t-49.5 -125.5t-119 -52zM511.5 656q-63.5 0 -132 -21.5t-123.5 -55t-99.5 -70.5
t-69.5 -69t-25 -50.5t25 -50.5t69.5 -69t99.5 -70.5t123.5 -55t132 -21.5t132 21.5t123.5 55t99.5 70.5t69 69t24.5 50.5t-24.5 50.5t-69 69t-99.5 70.5t-123.5 55t-132 21.5z" />
    <glyph glyph-name="uniE619" unicode="&#xe619;" 
d="M1015 172q-32 83 -56.5 173t-34 146t-18 119.5t-10.5 73.5q-14 75 -97 99q-87 25 -136 55q-15 9 -53 13.5t-61.5 5t-35.5 -0.5q-117 4 -152 -17q-49 -29 -136 -55q-84 -24 -97 -98q-2 -11 -11 -74t-18.5 -119.5t-33.5 -146t-57 -172.5q-2 -4 -4 -10.5t-2 -21.5t9 -23.5
t23.5 -15t23 -9t9.5 -2.5q3 -1 8 -2t16.5 3.5t19.5 16.5q18 27 60 180t60 251q1 -13 3.5 -35t7 -82t6.5 -112.5t0 -110.5t-10 -91q-5 -23 -11.5 -45t-10.5 -34.5t-7.5 -24.5t-4.5 -18.5t0.5 -12.5t6 -9t12.5 -7q36 -15 114.5 -28t173.5 -13q96 0 175.5 12.5t114.5 27.5
q8 3 12.5 6.5t6 9.5t0.5 12t-4.5 18.5t-7.5 25t-10.5 34.5t-11.5 44q-27 111 6 419l1 12q18 -98 60 -251t60 -179q8 -13 19 -17.5t18 -2.5l6 1q37 8 57 27q4 4 6.5 9t3 10t0 10.5t-1.5 10t-2.5 8t-2.5 6t-1 1.5zM579 265l-56 -72q-5 -7 -13 -7t-13 7l-56 72q-14 17 -11 38
l56 353q-20 7 -33 19.5t-13 22.5q0 12 21.5 20t52.5 8t52.5 -8t21.5 -20q0 -10 -13.5 -23t-33.5 -19l49 -353q3 -21 -11 -38z" />
    <glyph glyph-name="uniE61A" unicode="&#xe61a;" 
d="M934 -128h-699q-54 0 -100 92l-8 18l1 73l34 -2q21 0 36.5 8t22 17.5t10.5 23t4 18.5v8q0 20 -7 35.5t-17.5 22.5t-21 11.5t-17.5 5.5h-7h-37l1 144h34q20 0 34.5 7.5t21.5 18t11.5 20.5t5.5 18l1 7q0 22 -7.5 38t-18.5 23t-21.5 11.5t-18.5 4.5l-7 1h-35l-2 144l35 2
q21 0 36.5 7.5t22.5 18t10.5 21.5t4.5 18v8q0 19 -7.5 33t-18 21.5t-21 12t-18.5 5.5l-7 1h-37v71q0 15 11 25.5t26 10.5h658q15 0 25.5 -10.5t10.5 -25.5l73 -2q14 0 23 -9.5t11 -18.5l3 -9v-914q0 -12 -8.5 -20.5t-17.5 -11.5zM785 640h-475v-293h475v293zM896 813l-38 13
v-808q0 -15 -10.5 -25.5t-25.5 -10.5l-623 1q0 -11 9.5 -20.5t19.5 -13.5l9 -4h621q18 0 27 8.5t10 17.5l1 8v834zM401 566h293q7 0 12.5 -5t5.5 -12.5t-5.5 -13t-12.5 -5.5h-293q-7 0 -12.5 5.5t-5.5 13t5.5 12.5t12.5 5zM401 457h293q7 0 12.5 -5.5t5.5 -13t-5.5 -13
t-12.5 -5.5h-293q-7 0 -12.5 5.5t-5.5 13t5.5 13t12.5 5.5zM200 713q0 -15 -10.5 -26t-25.5 -11h-73q-15 0 -26 11t-11 26t11 25.5t26 10.5h73q15 0 25.5 -10.5t10.5 -25.5zM91 457h73q15 0 25.5 -11t10.5 -26t-10.5 -25.5t-25.5 -10.5h-73q-15 0 -26 10.5t-11 25.5t11 26
t26 11zM91 164h73q15 0 25.5 -10.5t10.5 -25.5t-10.5 -26t-25.5 -11h-73q-15 0 -26 11t-11 26t11 25.5t26 10.5z" />
    <glyph glyph-name="uniE61B" unicode="&#xe61b;" 
d="M65 619h894v-149h-894v149zM63 371h894v-149h-894v149zM63 98h894v-149h-894v149zM63 98z" />
    <glyph glyph-name="uniE61C" unicode="&#xe61c;" 
d="M439 107zM981 512l-384 -384v213q-8 0 -34 0.5t-41.5 0.5t-43.5 -1t-46.5 -4t-44.5 -8.5t-43 -14t-36 -21.5t-30 -29t-18 -39t-7 -51q0 -106 60.5 -194.5t155.5 -107.5q-80 11 -149 43t-121.5 84.5t-83 129t-30.5 170.5q0 62 15 114.5t38 90t58.5 67t69 48t77 31.5
t75 19.5t72 9.5t58 3.5t41.5 0.5h8v213z" />
    <glyph glyph-name="uniE61D" unicode="&#xe61d;" 
d="M927 364v20q0 113 -55.5 209t-151 151.5t-208.5 55.5q-118 0 -218 -62q-25 -14 -25 -42q0 -20 14 -34t34 -14q15 0 27 9q77 47 168 47q87 0 160.5 -43t116.5 -116.5t43 -160.5q0 -10 -1 -20h-93l143 -205l143 205h-97zM707 120q-15 0 -27 -9q-77 -47 -168 -47
q-87 0 -160.5 43t-116.5 116.5t-43 160.5q0 10 1 20h93l-143 205l-143 -205h97v-20q0 -113 55.5 -209t151 -151.5t208.5 -55.5q118 0 218 62q25 14 25 42q0 20 -14 34t-34 14z" />
    <glyph glyph-name="uniE61E" unicode="&#xe61e;" 
d="M134 0q-1 -3 -1.5 -9.5t0.5 -22t4 -27.5t13 -22t25 -11q73 -4 107 28v8q-1 7 -0.5 13.5t3.5 6.5h451q2 0 2.5 -6.5t-0.5 -12.5t1 -8q26 -32 99 -29q13 0 23.5 5.5t14.5 11.5l5 5q6 95 12 174t11 109q8 50 22 71q7 10 23 32t22.5 32t14 26t9.5 31q1 5 1 11v8q0 21 -7 38
q-8 23 -23 38.5t-35.5 22.5t-38 10t-40.5 4q-9 0 -25 -1t-23 0t-9 5q-2 6 9 14t28 16t34.5 15t29.5 11l13 4q5 34 -5 73q-18 65 -72 104q-91 65 -273 73h-89q-118 -5 -212 -36q-39 -13 -75.5 -41.5t-54.5 -64.5q-11 -22 -15.5 -49.5t-3.5 -43.5l1 -17q63 -19 88 -35
q16 -10 16 -16q1 -5 -9 -7q-7 -1 -30.5 -3t-46.5 -5.5t-38 -10.5q-34 -15 -50 -41.5t-16 -56.5q0 -26 12.5 -52.5t27.5 -45t30.5 -43.5t19.5 -48q17 -92 20 -235zM253 354q0 1 12.5 8t36 17.5t53.5 20.5t71 17.5t81 7.5q47 0 90.5 -7.5t73 -18t52 -21.5t32.5 -18l11 -8
q6 -23 -1 -33q-4 -5 -11.5 -7.5t-13.5 -2.5l-6 -1q-13 7 -35 16.5t-81 25t-109 15.5q-51 0 -108 -14.5t-88 -28.5l-31 -15q-23 2 -31 14q-2 6 -2 13.5t2 13.5zM192 291q12 -27 23 -113q13 -99 7 -131q-3 -17 -18 -21.5t-23 3.5q-4 4 -6 22q-1 7 -0.5 46.5t-3.5 60.5
q-12 89 -26 117q-15 33 6 41q19 8 35 -15q4 -5 6 -10z" />
    <glyph glyph-name="uniE61F" unicode="&#xe61f;" 
d="M702 616l-191 192l-191 -192l-14 14l198 198h14l198 -198zM501 821h20v-679h-20v679zM669 563v-20h137v-589h-589v589h151v20h-171v-629h628v629h-156z" />
    <glyph glyph-name="uniE620" unicode="&#xe620;" horiz-adv-x="1088" 
d="M85 -128q-35 0 -60 24.5t-25 58.5v662q0 35 25 59t60 24h212v-63h-212q-9 0 -15 -6t-6 -14v-662q0 -8 6 -13.5t15 -5.5h860q9 0 15.5 5.5t6.5 13.5v238h64v-238q0 -34 -25 -58.5t-61 -24.5h-860zM448 102q-2 6 -3.5 21.5t0 56t9 82t29.5 97t56 104.5q128 184 413 249
l-231 124l33 60l333 -181l-195 -309l-57 36l128 203q-256 -60 -368 -220q-65 -92 -79 -213q-7 -61 -1 -107l2 -10l-68 -1zM457 103q-1 8 -2.5 24t0 55.5t9 80t29 94t53.5 100.5q141 201 471 258l8 -48q-310 -53 -438 -237q-30 -42 -49 -92t-26 -86.5t-8 -76t0 -50.5t2 -21
l-49 -1v0zM889 419l-41 26l157 249l-271 146l23 43l317 -171zM889 419z" />
    <glyph glyph-name="uniE621" unicode="&#xe621;" 
d="M793.5 794q-52.5 0 -90.5 -37.5t-38 -90.5q0 -10 3 -23l-394 -170q-38 39 -92 39q-53 0 -90.5 -37.5t-37.5 -90.5t37.5 -90.5t90.5 -37.5q32 0 63 17l289 -181q-8 -22 -8 -42q0 -53 37.5 -90.5t90.5 -37.5t90.5 37.5t37.5 90.5t-37.5 90.5t-90.5 37.5q-48 0 -84 -33
l-278 174q18 31 18 65q0 15 -5 33l390 168q39 -47 99 -47q52 0 90 37.5t38 90.5t-38 90.5t-90.5 37.5zM118 384q0 26 19 45t45 19t45 -19t19 -45t-19 -45t-45 -19t-45 19t-19 45zM654.5 114q26.5 0 45 -19t18.5 -45.5t-18.5 -45t-45 -18.5t-45.5 18.5t-19 45t19 45.5
t45.5 19zM793.5 602q-26.5 0 -45.5 18.5t-19 45t19 45.5t45.5 19t45 -19t18.5 -45.5t-18.5 -45t-45 -18.5z" />
    <glyph glyph-name="uniE622" unicode="&#xe622;" 
d="M873 190l-73 142l-145 -54l12 -32l98 37q-31 -82 -101.5 -131.5t-156.5 -49.5q-94 0 -168.5 58.5t-98.5 152.5l-33 -9q27 -104 110.5 -170t189.5 -66q54 0 104 18q48 17 89 50q64 52 95 130l47 -91zM363 492l-9 33l-100 -27q33 77 101.5 122.5t151.5 45.5q91 0 164 -54.5
t100 -143.5l32 10q-14 48 -43 89q-28 41 -67 70q-83 63 -186 63t-186 -63q-39 -30 -67 -70q-17 -24 -29 -51l-43 91l-31 -15l67 -140z" />
    <glyph glyph-name="uniE623" unicode="&#xe623;" 
d="M817 601.5q0 121.5 -86 208t-208 86.5t-208 -86.5t-86 -207.5q0 -81 40.5 -148.5t108.5 -106.5q-129 -42 -211.5 -150.5t-87.5 -246.5h61q4 97 53 178t131.5 129t179.5 49l7 2q2 0 6 -0.5t6 -0.5q122 0 208 86.5t86 208zM523 378q-93 0 -158.5 65.5t-65.5 158t65.5 158.5
t158.5 66t158.5 -66t65.5 -158.5t-65.5 -158t-158.5 -65.5zM783 261q-9 11 -22 11t-22 -9t-9 -22q0 -15 13 -25v0q61 -48 98.5 -117.5t43.5 -149.5h61q-6 94 -49 175t-114 137z" />
    <glyph glyph-name="uniE624" unicode="&#xe624;" 
d="M335 -112q-30 0 -51 21t-21 51t21 51t51 21t51 -21t21 -51t-21 -51t-51 -21zM829.5 -112q-29.5 0 -50.5 21t-21 51t21 51t50.5 21t50.5 -21t21 -51t-21 -51t-50.5 -21zM326 65q-39 0 -68.5 27t-34.5 66l-60 421l-34 198q-2 12 -11.5 21t-20.5 9h-45q-15 0 -26 10.5
t-11 25.5t11 26t26 11h45q39 0 69 -27t35 -66l34 -196l60 -424q2 -12 11 -20.5t20 -8.5h574q15 0 25.5 -10.5t10.5 -26t-10.5 -26t-25.5 -10.5h-574zM370 206q-14 0 -24.5 10t-11.5 24q-1 15 8.5 26.5t24.5 12.5l480 35q12 1 21.5 9t11.5 20l55 318q3 20 -8 32q-7 8 -16 8
h-612q-15 0 -25.5 10.5t-10.5 25.5t10.5 26t25.5 11h612q42 0 70 -32q33 -37 27 -91l-56 -318q-5 -38 -34.5 -64.5t-68.5 -27.5l-476 -35h-3z" />
    <glyph glyph-name="uniE625" unicode="&#xe625;" 
d="M960 385l-192 193v-128h-193v193h128l-193 192l-192 -192h128v-193h-193v128l-192 -193l192 -192v128h193v-193h-128l192 -192l193 192h-128v193h193v-128z" />
    <glyph glyph-name="uniE626" unicode="&#xe626;" 
d="M957 255q0 1 -1 3t-3 4q-4 5 -9 8v2q0 1 1 1h-293q-12 0 -20 -8t-8 -20t8 -20t20 -8h213q-48 -101 -143 -162.5t-210 -61.5q-147 0 -257 96.5t-130 239.5h-57q14 -109 76 -198.5t159 -141.5t209 -52q124 0 228.5 63t162.5 168v-203q0 -11 8.5 -19.5t20 -8.5t19.5 8.5
t8 19.5v280q0 4 -2 10zM80 500v-2l-1 -1h293q12 0 20 8t8 19.5t-8 20t-20 8.5h-214q48 101 143.5 162t210.5 61q147 0 256.5 -96t130.5 -239h56q-13 109 -75 198.5t-159 141t-209 51.5q-124 0 -228.5 -63t-163.5 -168v203q0 12 -8 20t-19.5 8t-20 -8t-8.5 -20v-279
q0 -5 2 -10q1 -1 2 -3t3 -4q4 -5 9 -8z" />
    <glyph glyph-name="uniE627" unicode="&#xe627;" 
d="M445 44zM374 44.5q0 29.5 21 50t50.5 20.5t50.5 -20.5t21 -50t-21 -50.5t-50.5 -21t-50.5 21t-21 50.5zM775 44zM704 44.5q0 29.5 21 50t50.5 20.5t50.5 -20.5t21 -50t-21 -50.5t-50.5 -21t-50.5 21t-21 50.5zM895 171h-576q-16 0 -20 16l-123 497h-114q-8 0 -14 6
t-6 14.5t6 14.5t14 6h130q16 0 20 -16l123 -497h542l51 410h-543q-8 0 -14 6t-6 14.5t6 14.5t14 6h566q9 0 15 -7t5 -16l-56 -451q-1 -7 -6.5 -12.5t-13.5 -5.5z" />
    <glyph glyph-name="uniE628" unicode="&#xe628;" 
d="M500 715l1 112q0 8 -6 14t-15 6h-111q-8 0 -14 -6t-6 -14v-2v-149h-18v78v2q0 8 -6 14t-14 6h-111q-9 0 -14.5 -6t-6.5 -14h21h-20l-3 -354v-2q0 -2 1 -5l87 -472l20 3l-20 -3q3 -17 20 -17h480q8 0 14 5.5t6 13.5l69 473q2 8 -3.5 14.5t-13.5 8.5h-3h-11v270v2
q0 8 -6 14t-14 6h-60v137v2q0 8 -6 14t-14 6h-111q-9 0 -15 -6t-6 -14l1 -109h-60q-8 0 -14 -6t-6 -14v-8h-12zM218 421l2 314h71v-76q-1 -2 -1 -4h1v-234h-73zM332 418l-1 217h70l1 -283q-32 24 -66 62zM412 298q1 0 2 -1q40 -21 80 -23q80 -5 154 70q12 4 15 17
q9 10 16 19h132l-64 -433h-445l-80 433h90q51 -55 100 -82zM443 328l-1 325v1v1v4v15h70l1 -359q-9 -1 -17 -1q-26 2 -53 14zM553 325v368v1v1v4v3h70l-1 -325q-34 -36 -69 -52zM663 420l1 301v2q0 8 -6 14t-15 6h-11v88h70l1 -118h-11q-9 0 -15 -6t-6 -14l1 -272h-3
q-3 0 -6 -1zM713 421l-1 251h70l1 -251h-70zM401 676h-12l1 130h70v-91h-39q-8 0 -14 -6t-6 -14v-19z" />
    <glyph glyph-name="uniE629" unicode="&#xe629;" 
d="M492 870h24q47 -4 82.5 -38.5t40.5 -80.5q7 -48 -21 -91.5t-75 -56.5q-41 -13 -83.5 1.5t-66.5 49.5q-28 37 -26 85.5t33 83.5q33 39 92 47zM363 551q16 17 38.5 22t57 3.5t45.5 -0.5q9 -1 45 0.5t57.5 -4t38.5 -22.5q28 -28 83.5 -84t83.5 -83q22 -21 32 -45v-10
q-3 -26 -28.5 -38t-46.5 5q-24 21 -65 63.5t-57 57.5v-105h-91h-106h-91v104q-19 -18 -53.5 -53.5t-50.5 -51.5q-29 -29 -53 -23q-23 2 -38 33v19q9 23 32 45q29 28 84 83.5t83 83.5zM266 163q13 14 28.5 30t34.5 34.5t30 29.5q20 -20 108 -109l-79 -79q10 -11 36.5 -36.5
t40.5 -40.5q26 -28 20 -52q-3 -23 -35 -38h-23q-9 5 -18.5 12.5t-14.5 12.5t-16.5 17t-14.5 15q-13 14 -44 46.5t-48 50.5q-20 22 -22.5 53t17.5 54zM538 148q82 82 108 109q3 -3 38.5 -38t52.5 -53q20 -20 20.5 -49.5t-15.5 -51.5q-13 -16 -40 -43t-34 -35
q-9 -9 -26.5 -28.5t-32 -33t-31.5 -23.5h-23q-23 8 -32.5 31.5t5.5 43.5q16 19 49.5 52t40.5 40q-13 12 -80 79z" />
    <glyph glyph-name="uniE62A" unicode="&#xe62a;" 
d="M539 366l390 466h-72l-346 -413l-346 413h-72l391 -466v-22h-317v-55h317v-352h55v352h316v55h-316v22z" />
    <glyph glyph-name="uniE62B" unicode="&#xe62b;" 
d="M898 505q-32 75 -90 133t-134 90q-78 33 -162 33v84l-188 -108l188 -109v91q75 0 144 -28.5t122.5 -82t82 -122.5t28.5 -145t-28.5 -145t-82.5 -122.5t-123 -82t-144.5 -28.5t-144.5 28.5t-122.5 82t-82.5 122.5t-29 145h-42q0 -85 33 -163q32 -76 90.5 -134t133.5 -90
q78 -33 163.5 -33t163.5 33q75 32 133.5 90t90.5 134q33 78 33 163.5t-33 163.5zM662 120l-191 191v220h42v-203l178 -178zM662 120z" />
    <glyph glyph-name="uniE62C" unicode="&#xe62c;" 
d="M996 549h-96q-6 0 -13 -4l-43 130q-10 54 -45 82t-85 28h-405q-53 0 -87 -30.5t-43 -78.5l-43 -131q-7 4 -14 4h-95q-11 0 -19 -8t-8 -19v-23q0 -11 8 -19t19 -8l36 -6q-18 -35 -18 -78l-13 -153v-14v-8v-185q0 -20 13.5 -34t33.5 -14h73q19 0 33 14t14 34v59h625v-59
q0 -20 14 -34t34 -14h72q20 0 34 14t14 34v185q0 4 -1 8q1 8 1 14l-14 153q0 43 -18 78l36 6q11 0 18.5 8t7.5 19v23q0 11 -7.5 19t-18.5 8zM211 576l32 85v2q1 6 3.5 10.5t4.5 7t6 7t7 8.5h496q3 -4 7 -9t6 -7t4 -7t3 -10l32 -87l12 -47q-2 -25 -26.5 -43t-51.5 -18h-468
q-27 0 -52 18t-27 43zM233 175q-30 0 -51 21t-21 51t21 51t51 21t51 -21t21 -51t-21 -51t-51 -21zM636 228q0 -9 -6.5 -15t-15.5 -6h-202q-9 0 -15 6t-6 15v60q0 9 6 15.5t15 6.5h202q9 0 15.5 -6.5t6.5 -15.5v-60zM790 175q-30 0 -51 21t-21 51t21 51t51 21t51 -21t21 -51
t-21 -51t-51 -21z" />
    <glyph glyph-name="uniE62D" unicode="&#xe62d;" 
d="M99 254q72 16 142.5 -3.5t126.5 -72.5q27 -27 45.5 -60.5t28.5 -70t10.5 -73.5t-7.5 -71q-70 -16 -141 8t-126 78q-56 54 -75 125t-4 140zM925 254q15 -69 -4 -140t-74 -125q-26 -26 -62.5 -44.5t-76.5 -29t-83 -14.5t-84 -1h-60v388q-60 6 -112 33q-40 21 -73.5 52
t-57.5 69t-37.5 82.5t-13.5 93.5q0 65 26 126q50 -13 91.5 -38t74.5 -61q10 70 46.5 128.5t92.5 97.5q58 -39 94.5 -99t44.5 -131q33 36 75.5 62t92.5 39q24 -59 24 -124q0 -48 -13 -92.5t-37.5 -82.5t-57.5 -69t-73 -52v-1q-29 -14 -59.5 -23t-63.5 -11v-278q12 42 38 81
t60 72q27 27 61.5 47.5t71.5 33t75.5 15.5t73.5 -4zM925 254z" />
    <glyph glyph-name="uniE62E" unicode="&#xe62e;" 
d="M757 -18q-6 0 -10 3l-234 123l-234 -123q-11 -6 -22 1.5t-9 20.5l45 261l-189 184q-9 9 -5 21.5t17 14.5l261 38l117 237q6 12 19 12t19 -12l117 -237l261 -38q13 -2 17.5 -14.5t-5.5 -21.5l-189 -184l45 -261q2 -13 -9 -20q-5 -5 -12 -5zM165 452l166 -162q8 -8 6 -19
l-39 -228l205 108q10 5 20 0l205 -108l-39 228q-2 11 6 19l166 162l-229 34q-11 1 -16 11l-103 208l-103 -208q-5 -10 -16 -11z" />
    <glyph glyph-name="uniE62F" unicode="&#xe62f;" horiz-adv-x="1303" 
d="M82 111h1099q33 0 56 23t23 55.5t-23 55.5t-56 23h-6q-23 160 -129 282t-260 167q3 15 3 22q0 65 -46 111t-111 46t-111 -46t-46 -111q0 -7 2 -22q-154 -45 -260 -167t-129 -282h-6q-32 0 -55 -23t-23 -55.5t23 -55.5t55 -23zM632 818q32 0 55 -23t23 -56q0 -1 -0.5 -3
t-0.5 -3q-43 6 -77.5 6t-77.5 -6q0 1 -0.5 3t-0.5 3q0 33 23 56t56 23zM301 397q38 62 96 106t128 64l6 2v0q4 1 8 1q16 0 28 -12t12 -28q0 -15 -9.5 -26t-23.5 -13v-1q-113 -32 -177 -131q-10 -24 -36 -24q-16 0 -27.5 11.5t-11.5 28.5q0 12 7 22zM1181 33h-1099
q-32 0 -55 -23t-23 -55.5t23 -55.5t55 -23h1099q33 0 56 23t23 55.5t-23 55.5t-56 23z" />
    <glyph glyph-name="uniE630" unicode="&#xe630;" 
d="M765 616q0 1 -1 2q-1 0 -3 1l-3 1l-3 2q-37 19 -78 23q-30 46 -78.5 72t-103.5 26q-74 0 -132 -44t-79 -114q-1 0 -6 -2q-6 -2 -7 -3q-56 -22 -90 -71q-4 -6 -9 -13v-2h-1q-3 -6 -7 -13l-1 -2q-3 -7 -5 -14v-1q-1 0 -1 -1q-12 -33 -12 -67q0 -82 58 -140t140 -58h312
q92 0 157.5 66t65.5 158q0 62 -30.5 113.5t-82.5 80.5zM655 239h-312q-65 0 -111 46t-46 111q0 38 18 73q2 4 3 4q4 9 11 17q0 1 1.5 2.5t1.5 2.5q6 7 14 14q4 4 4 5l16 12q3 1 5 3q10 6 19 10q2 1 3 1q12 6 24 8v1q30 7 60 3q8 -2 15 3t8 13.5t-4 15.5t-13 8q-20 3 -41 1
q20 50 64.5 79.5t99.5 29.5q78 0 131 -58q-19 -2 -32 -6q-90 -25 -135 -106q-4 -8 -1.5 -16t9.5 -12q5 -3 10 -3q12 0 18 11q37 66 110 86q28 8 58 7h1h1q72 -4 122.5 -57t50.5 -126q0 -75 -54 -129t-129 -54zM340 142q-5 0 -5 -5v-3q0 -5 5 -5h14l-7 -12q-3 -5 2 -8l2 -1
q5 -3 8 2l6 12l7 -12q3 -5 8 -2l2 1q5 3 2 8l-7 12h14q5 0 5 5v3q0 5 -5 5h-14l7 12q3 5 -2 7l-2 2q-5 2 -8 -2l-7 -12l-6 12q-3 4 -8 2l-2 -2q-5 -2 -2 -7l7 -12h-14zM443 142q-5 0 -5 -5v-3q0 -5 5 -5h14l-7 -12q-3 -5 2 -8l2 -1q5 -3 8 2l7 12l6 -12q3 -5 8 -2l2 1
q5 3 2 8l-7 12h14q5 0 5 5v3q0 5 -5 5h-14l7 12q3 5 -2 7l-2 2q-5 2 -8 -2l-6 -12l-7 12q-3 4 -8 2l-2 -2q-5 -2 -2 -7l7 -12h-14zM546 142q-5 0 -5 -5v-3q0 -5 5 -5h14l-7 -12q-2 -5 2 -8l2 -1q5 -3 8 2l7 12l7 -12q2 -5 7 -2l2 1q5 3 2 8l-7 12h14q5 0 5 5v3q0 5 -5 5h-14
l7 12q3 5 -2 7l-2 2q-5 2 -7 -2l-7 -12l-7 12q-3 4 -8 2l-2 -2q-4 -2 -2 -7l7 -12h-14zM650 142q-6 0 -6 -5v-3q0 -5 6 -5h13l-7 -12q-2 -5 2 -8l3 -1q4 -3 7 2l7 12l7 -12q2 -5 7 -2l2 1q5 3 2 8l-7 12h14q6 0 6 5v3q0 5 -6 5h-14l7 12q3 5 -2 7l-2 2q-5 2 -7 -2l-7 -12
l-7 12q-3 4 -7 2l-3 -2q-4 -2 -2 -7l7 -12h-13zM302 53q-5 0 -5 -5v-3q0 -5 5 -5h14l-7 -12q-3 -5 2 -8l2 -1q5 -3 7 2l7 12l7 -12q3 -5 8 -2l2 1q4 3 2 8l-7 12h14q5 0 5 5v3q0 5 -5 5h-14l7 12q2 5 -2 7l-2 2q-5 2 -8 -2l-7 -12l-7 12q-2 4 -7 2l-2 -2q-5 -2 -2 -7l7 -12
h-14zM405 53q-5 0 -5 -5v-3q0 -5 5 -5h14l-7 -12q-3 -5 2 -8l2 -1q5 -3 8 2l6 12l7 -12q3 -5 8 -2l2 1q5 3 2 8l-7 12h14q5 0 5 5v3q0 5 -5 5h-14l7 12q3 5 -2 7l-2 2q-5 2 -8 -2l-7 -12l-6 12q-3 4 -8 2l-2 -2q-5 -2 -2 -7l7 -12h-14zM508 53q-5 0 -5 -5v-3q0 -5 5 -5h14
l-7 -12q-2 -5 2 -8l2 -1q5 -3 8 2l7 12l7 -12q2 -5 7 -2l2 1q5 3 2 8l-7 12h14q5 0 5 5v3q0 5 -5 5h-14l7 12q3 5 -2 7l-2 2q-5 2 -7 -2l-7 -12l-7 12q-3 4 -8 2l-2 -2q-4 -2 -2 -7l7 -12h-14zM612 53q-6 0 -6 -5v-3q0 -5 6 -5h13l-7 -12q-2 -5 2 -8l3 -1q4 -3 7 2l7 12
l7 -12q2 -5 7 -2l2 1q5 3 2 8l-7 12h14q6 0 6 5v3q0 5 -6 5h-14l7 12q3 5 -2 7l-2 2q-5 2 -7 -2l-7 -12l-7 12q-3 4 -7 2l-3 -2q-4 -2 -2 -7l7 -12h-13z" />
    <glyph glyph-name="uniE631" unicode="&#xe631;" 
d="M528 640q-16 15 -37 15t-37 -15l-352 -352q-16 -16 -16 -37.5t16 -36.5l241 -241q14 -14 36 -14t38 14l352 353q14 15 14 36.5t-14 36.5zM509 510l-259 -259q-8 -8 -18.5 -8t-18 7.5t-7.5 19t7 18.5l259 259q8 8 18.5 8t18.5 -8q7 -7 7 -18t-7 -19zM592 723
q-12 12 -28 12t-27 -12q-12 -12 -12 -28t12 -28l259 -259q12 -12 28 -12t27 12q12 12 12 28.5t-12 27.5zM926 741q12 12 11.5 28t-11.5 28q-12 12 -27.5 12t-27.5 -12q-12 -11 -12 -26.5t12 -27.5q-17 16 -39 23.5t-45.5 6t-47.5 -11.5t-45 -29v1q-7 8 -18 8t-18 -8
q-8 -8 -8 -19t7 -19l166 -166q8 -7 19 -7t19 7q8 8 8 18.5t-8 18.5v1q17 20 27.5 43.5t12 47.5t-6 45t-23.5 38q12 -11 27.5 -11t27.5 11z" />
    <glyph glyph-name="uniE632" unicode="&#xe632;" 
d="M858 281q-13 13 -32 13h-628q-19 0 -32 -13t-13 -31.5t13 -31.5l314 -315q14 -13 32 -13t32 13l314 315q13 13 13 31.5t-13 31.5zM512 847q6 0 10 -4l314 -314q5 -5 5 -10.5t-4.5 -9.5t-10.5 -4h-628q-6 0 -10.5 4t-4.5 9.5t5 10.5l314 314q4 4 10 4zM512 878
q-18 0 -32 -13l-314 -315q-13 -13 -13 -31.5t13 -31.5t32 -13h628q19 0 32 13t13 31.5t-13 31.5l-314 315q-14 13 -32 13z" />
    <glyph glyph-name="uniE633" unicode="&#xe633;" 
d="M512 -9q-11 0 -18 8l-382 450q-12 13 -2 28l156 233q7 11 19 11h454q12 0 19 -11l156 -233q10 -15 -2 -28l-382 -450q-7 -8 -18 -8zM159 466l353 -416l353 416l-139 208h-428zM894 449h-764q-6 0 -10.5 4.5t-4.5 10.5t4.5 10.5t10.5 4.5h764q6 0 10.5 -4.5t4.5 -10.5
t-4.5 -10.5t-10.5 -4.5zM497 460q-6 0 -11 5q-10 12 1 22l241 221q11 11 21.5 -0.5t-0.5 -21.5l-241 -222q-5 -4 -11 -4zM497 460q-6 0 -11 5l-212 221q-10 12 1 22.5t22 -0.5l212 -222q10 -11 -1 -21q-4 -5 -11 -5zM512 -1q-10 0 -14 9l-186 450q-2 6 0.5 12t8.5 8.5
t11.5 0t8.5 -8.5l185 -450q3 -6 0.5 -12t-8.5 -8q-3 -1 -6 -1zM512 -1q-3 0 -5 1q-6 2 -9 7.5t0 11.5l161 450q2 6 8 9t12 0.5t8.5 -8t0.5 -11.5l-162 -450q-3 -10 -14 -10z" />
    <glyph glyph-name="uniE634" unicode="&#xe634;" 
d="M894 398h-738q-6 0 -10 4.5t-4 10t4 10t10 4.5h738q6 0 10 -4.5t4 -10t-4 -10t-10 -4.5zM773.5 53q-5.5 0 -10.5 4l-238 239l-239 -238q-10 -10 -20 0t0 19l249 249q4 4 10 4t10 -4l248 -249q10 -10 0 -20q-4 -4 -9.5 -4zM740.5 470q-5.5 0 -9.5 4t-4 10v200
q0 39 27 66.5t66 27.5t66.5 -27.5t27.5 -66t-27.5 -66t-66.5 -27.5h-7q-6 0 -10 4t-4 10t4 10t10 4h7q27 0 46 19t19 46t-19 46.5t-46 19.5t-46 -19.5t-19 -46.5v-200q0 -6 -4.5 -10t-10 -4zM525.5 481q-57.5 0 -98 40.5t-40.5 98t40.5 98t98 40.5t98 -40.5t40.5 -98
t-40.5 -98t-98 -40.5zM525.5 730q-45.5 0 -78 -32.5t-32.5 -78t32.5 -78t78 -32.5t78 32.5t32.5 78t-32.5 78t-78 32.5zM350 735h-191q-6 0 -10.5 4t-4.5 10t4.5 10t10.5 4h191q6 0 10.5 -4t4.5 -10t-4.5 -10t-10.5 -4zM254 483q-6 0 -10 4t-4 10v237q0 6 4 10t10 4t10 -4
t4 -10v-237q0 -6 -4 -10t-10 -4z" />
    <glyph glyph-name="uniE635" unicode="&#xe635;" 
d="M3 759h205v-204h-205v204zM256 759h765v-204h-765v204zM256 486h765v-204h-765v204zM256 213h765v-204h-765v204zM3 486h205v-204h-205v204zM3 213h205v-204h-205v204z" />
    <glyph glyph-name="uniE636" unicode="&#xe636;" 
d="M655 429q10 -4 29 -15t43.5 -30.5t55 -50t62 -77t63.5 -109.5t61 -147q-14 -8 -29.5 -20t-30 -21t-30 -14.5t-30.5 -2.5q-42 9 -74.5 8t-60 -7.5t-50.5 -16.5q-24 -9 -45 -19q-22 -9 -44 -15t-47 -6q-55 1 -105.5 16t-96.5 30.5t-85 23.5t-71 -4q-20 -8 -40.5 -1
t-36.5 17q-20 13 -38 32q36 111 81.5 190t88 130t75 77.5t41.5 31.5t9.5 24t-0.5 39q-3 23 -9 51l-143 287l171 28q26 -49 51 -75t48 -35t43 -5t38 17q41 29 77 98l172 -28q-19 -46 -43 -94q-19 -42 -45 -92.5t-55 -100.5q-12 -33 -13.5 -54.5t1.5 -34.5q4 -16 12 -25z" />
    <glyph glyph-name="uniE637" unicode="&#xe637;" 
d="M57 384q0 -93 36 -177t97 -145t145 -97t177 -36t177 36t145 97t97 145t36 177t-36 177t-97 145t-145 97t-177 36t-177 -36t-145 -97t-97 -145t-36 -177v0zM0 384q0 139 68.5 257t186.5 186.5t257 68.5t257 -68.5t186.5 -186.5t68.5 -257t-68.5 -257t-186.5 -186.5
t-257 -68.5t-257 68.5t-186.5 186.5t-68.5 257zM503 516h17q-26 30 -47.5 41.5t-53.5 11.5q-12 0 -20 -1q-39 -5 -67.5 -37.5t-32.5 -81.5v-24q4 -52 45.5 -99t143.5 -119q10 -8 23.5 -8t24.5 8q103 72 144.5 119.5t44.5 97.5v24q-4 50 -33 83t-68 37q-5 1 -19 1
q-33 0 -55.5 -12t-46.5 -41z" />
    <glyph glyph-name="uniE638" unicode="&#xe638;" 
d="M62 717v-733q5 -6 8 -13.5t7 -13.5q6 -5 14 -8t14 -8h667q6 5 12.5 8.5t11 7.5t10.5 12q5 8 7.5 36t2.5 52t-0.5 59t-0.5 39v256q-7 -3 -12 -7.5t-10.5 -11t-8.5 -9.5q-15 -14 -19.5 -18t-8 -16t-2.5 -19.5t2 -36.5t1 -58v-235l-18 -3q-23 0 -189 -1t-293 -1t-140 2
q-2 15 -2 153t1 316t1 199v34q0 4 1 4l2 2h373q23 0 61 46q3 3 6 4q1 0 2 3q0 1 1 3h-407q-50 0 -61 -4.5t-27 -29.5q-4 -6 -6 -10zM363 247q2 14 7.5 32t12.5 41t10 32q1 6 2.5 14t2 10.5t3 7t5.5 7.5l8 8l301 306q8 8 25.5 26t26.5 27t24 19.5t26 11.5t26 -3.5t29 -18.5
q13 -13 19.5 -24t5.5 -23t-3.5 -21t-13.5 -22.5t-18.5 -21.5t-24.5 -24.5t-25 -24.5l-270 -269q-9 -8 -19 -19.5t-13 -14.5t-10.5 -8t-15 -7.5t-21.5 -6.5q-66 -27 -100 -34zM954 702v34q-3 6 -7.5 20t-7.5 20q-11 18 -25.5 31.5t-24 19t-23.5 12t-18 8.5h-39
q-5 -2 -23 -9.5t-29 -15.5q-19 -14 -334 -334q-2 -2 -22 -21t-34 -34t-17 -22q-2 -9 -22 -78.5t-29 -94.5q-1 -1 -3 -8t-3 -10t-2.5 -9t-1.5 -9.5t0.5 -8t3 -8t6.5 -6.5q16 -16 109 25q86 19 112 37l261 257q6 6 18.5 20t18.5 20q17 15 59 56.5t53 54.5q7 13 14 30t10 23z
M757 0h-637v705l-2 -2q-1 0 -1 -4v-34q0 -21 -1 -199t-1 -316t2 -153q13 -2 140 -2t293 1t189 1l18 3v0zM62 -59h43q-6 5 -14 8t-14 8q-4 6 -7 13.5t-8 13.5v-43z" />
    <glyph glyph-name="uniE639" unicode="&#xe639;" 
d="M582 771q-124 0 -215 -83t-103 -205q16 66 59 116q46 52 107.5 81.5t127.5 32.5q118 4 199 -77q65 -66 64.5 -163t-67.5 -168q-55 -59 -145 -61q-88 -2 -142 52q-52 51 -52 125q-1 72 49 121q42 42 102 42t103 -43q34 -35 33.5 -84.5t-35.5 -83.5q-29 -29 -69.5 -29
t-69.5 29q-24 24 -24 58.5t24 58.5q6 6 15 6t15.5 -6t6.5 -15t-7 -16q-11 -11 -11 -27.5t11 -28.5q17 -16 39.5 -16t39.5 16q22 22 22 54t-21 54q-30 30 -72 30t-72 -29q-36 -37 -36 -91q0 -56 39 -94q42 -41 111 -39q72 1 115 47q55 58 56 137.5t-53 133.5q-67 67 -167 63
q-57 -1 -110 -27t-93 -72q-39 -45 -52 -104t3 -122q12 -46 43 -90l-170 -169q-7 -8 -7 -18.5t7.5 -18.5t18 -8t18.5 8l165 165q80 -81 200 -81q87 0 160.5 43t116 116.5t42.5 160.5t-42.5 160.5t-116 116t-160.5 42.5z" />
    <glyph glyph-name="uniE63A" unicode="&#xe63a;" 
d="M279 207q3 2 7.5 6t19.5 15.5t30.5 22t39.5 24.5t48 25t53.5 21t58 15t60.5 4t62 -9v-138l245 252l-245 182v-142q-7 0 -18.5 0.5t-45.5 -2.5t-66 -11t-73 -27.5t-73.5 -48.5t-61 -78t-41.5 -111zM683 46h-489v391h126q27 28 60.5 46t53.5 23l21 4h-334v-537h635v239
l-73 -72v-94z" />
    <glyph glyph-name="uniE63B" unicode="&#xe63b;" 
d="M351 64q-26 0 -44.5 -18.5t-18.5 -45t18.5 -45t45 -18.5t45 18.5t18.5 45t-18.5 45t-45.5 18.5v0zM797 64q-26 0 -45 -18.5t-19 -45t19 -45t45 -18.5t45 18.5t19 45t-19 45t-45 18.5v0zM860 96h-517q-34 0 -61 24t-31 59l-54 380l-31 178q-1 11 -10 19.5t-19 8.5h-41
q-13 0 -22.5 9t-9.5 22.5t9.5 22.5t22.5 9h41q34 0 61 -24t32 -58l30 -177l54 -382q2 -11 10.5 -19t18.5 -8h517q13 0 22.5 -9.5t9.5 -22.5t-9.5 -22.5t-22.5 -9.5zM383 223q-13 0 -22 8.5t-10 21.5t7.5 23t22.5 11l432 32q11 0 20 8t10 19l51 286q2 19 -8 30q-7 7 -16 7
h-551q-13 0 -22.5 9.5t-9.5 22.5t9.5 22.5t22.5 9.5h551q38 0 63 -29q29 -33 24 -81l-51 -287q-4 -33 -30.5 -57t-60.5 -24l-430 -32h-2zM383 223z" />
    <glyph glyph-name="uniE63C" unicode="&#xe63c;" 
d="M515 794v-828v828zM764 593l1 -551q0 -44 -41 -44l-421 1q-42 0 -42 42v552h-65v-552q0 -44 31 -74.5t74 -30.5h420q44 0 74.5 30.5t30.5 74.5v552h-62zM349 475v-391q0 -4 1 -8h58q1 4 1 8v391h-60zM613 473v-389q0 -3 1 -6h58q1 3 1 6v389h-60zM936 699h-234v66
q2 65 -86 65h-209q-85 0 -85 -64l-1 -67h-237v-65h852v65zM643 699h-263v46q0 11 7 19t18 8l210 -1q11 0 19 -7t8 -18zM483 473v-389q0 -3 1 -6h58v6v389h-59z" />
    <glyph glyph-name="uniE63D" unicode="&#xe63d;" 
d="M557 371l266 264q9 9 9 22t-9.5 22.5t-22.5 9.5t-23 -9l-265 -264l-263 264q-9 9 -22.5 9t-23 -9t-9.5 -22.5t10 -22.5l263 -264l-265 -264q-10 -9 -10 -22.5t9.5 -22.5t22.5 -9t23 9l265 264l265 -267q10 -9 23 -9t22.5 9.5t9.5 22.5t-9 23z" />
    <glyph glyph-name="uniE63E" unicode="&#xe63e;" 
d="M940 -2l-148 159q93 112 93 258q0 109 -54 202.5t-147.5 147.5t-203.5 54t-203 -54t-147.5 -147.5t-54.5 -203t54.5 -203t147.5 -147.5t203 -54q88 0 168 36q12 6 16.5 18t-1 23.5t-17.5 16t-24 -0.5q-67 -31 -142 -31q-93 0 -172 46t-124.5 125t-45.5 172t45.5 171.5
t124.5 124.5t172 46t172 -46t125 -124.5t46 -171.5q0 -138 -96 -237q-9 -10 -8.5 -23t9.5 -21q1 -1 2 -1.5t1 -1.5q1 0 1.5 -1.5t1.5 -1.5l161 -173q9 -10 22 -10t22 9t9.5 22t-8.5 22zM940 -2z" />
    <glyph glyph-name="uniE63F" unicode="&#xe63f;" 
d="M876 761q0 -33 -24 -56.5t-58 -23.5h-511q-34 0 -58 23.5t-24 56.5v54q0 33 24 56.5t58 23.5h511q34 0 58 -23.5t24 -56.5v-54zM432 475h444v32q0 33 -24 56.5t-58 23.5h-511q-34 0 -58 -23.5t-24 -56.5v-554q0 -33 24 -56t58 -23h511q34 0 58 23t24 56v33h-444v489z
M469 22h407v417h-407v-417zM538 263h99v99h66v-99h99v-66h-99v-98h-66v98h-99v66z" />
    <glyph glyph-name="uniE640" unicode="&#xe640;" 
d="M572 174v330q0 18 15 25.5t30 0t15 -25.5v-330q0 -24 -24 -28t-33 16q-3 5 -3 12v0zM392 174v330q0 18 15 25.5t30 0t15 -25.5v-330q0 -18 -15 -25.5t-30 0t-15 25.5v0zM902 654h-150v60q0 37 -26 63t-63 26h-301q-37 0 -63.5 -26t-26.5 -63v-60h-150q-18 0 -25.5 -15
t0 -30t25.5 -15h780v60v0zM332 714q0 12 9 21t21 9h301q12 0 20.5 -8.5t8.5 -21.5v-60h-360v60zM722 -35h-420q-37 0 -63.5 26t-26.5 63v450q0 13 9 21.5t21 8.5t21 -8.5t9 -21.5v-450q0 -11 9 -20.5t21 -9.5h420q12 0 21 9.5t9 20.5v449q0 18 15 26t30 0t15 -26v-449
q0 -37 -26.5 -63t-63.5 -26zM722 -35z" />
    <glyph glyph-name="uniE641" unicode="&#xe641;" 
d="M960 543l-179 224h-538l-179 -224v-90l448 -451l448 451v90zM385 677h255l49 -89h-358zM112 543h222v-90h-224zM512 186l-179 223h358zM691 453v90h224v-90h-224z" />
    <glyph glyph-name="uniE642" unicode="&#xe642;" 
d="M714 -57l-448 447l446 447l45 -45l-401 -402l403 -402z" />
    <glyph glyph-name="uniE643" unicode="&#xe643;" 
d="M73 578h895l-448 -448z" />
    <glyph glyph-name="uniE644" unicode="&#xe644;" 
d="M554 507h-82v81q0 17 -12 29t-29 12t-28.5 -12t-11.5 -29v-81h-82q-17 0 -29 -12t-12 -29t12 -29t29 -12h82v-82q0 -17 11.5 -29t28.5 -12t29 12t12 29v82h82q17 0 29 12t12 29t-12 29t-29 12zM951 4l-232 232q38 48 59 107t21 123q0 74 -29 142.5t-78.5 117.5
t-117.5 78.5t-143 29.5q-74 0 -142.5 -29.5t-117.5 -78.5t-78.5 -117.5t-29 -143t29.5 -142.5t78 -117.5t117.5 -78.5t142.5 -29q65 0 123.5 21t106.5 59l232 -232q12 -12 29 -12q18 0 29.5 12t11.5 29t-12 29zM695 355q-23 -53 -61 -91.5t-91 -61t-111.5 -22.5t-111.5 22.5
t-91 61t-61 91.5t-23 111t23 111t61 91.5t91 61t111.5 22.5t111.5 -22.5t91 -61t61 -91.5t23 -111t-23 -111z" />
    <glyph glyph-name="uniE645" unicode="&#xe645;" 
d="M73 261h895l-448 448z" />
    <glyph glyph-name="uniE646" unicode="&#xe646;" 
d="M553 139v-250h-41v247q-101 0 -186.5 50t-135 135.5t-49.5 186.5t49.5 186.5t135 135t186.5 49.5t186.5 -49.5t135 -135t49.5 -186.5q0 -143 -95 -248.5t-235 -120.5zM512 714q51 0 87.5 -36t36.5 -87.5t-36.5 -87.5t-87.5 -36v4q-18 6 -29.5 22t-11.5 35.5t11.5 35.5
t29.5 22v43q-36 -7 -59.5 -35.5t-23.5 -65.5t23.5 -65t59.5 -36v-2q68 0 116.5 48.5t48.5 117t-48.5 116.5t-116.5 48q-103 0 -175.5 -72.5t-72.5 -175t72.5 -175t175.5 -72.5t175 73l-29 29q-61 -61 -146 -61t-145.5 60.5t-60.5 146t60.5 146t145.5 60.5z" />
    <glyph glyph-name="uniE647" unicode="&#xe647;" horiz-adv-x="1081" 
d="M1081 466l-512 373l-512 -373l89 -66v-528h89v463l334 -243zM547 48v-15l-261 170l-7 -111l268 -176h44v123v9h-44zM591 39l2 -123l265 189l-6 119z" />
    <glyph glyph-name="uniE648" unicode="&#xe648;" 
d="M922 448q-4 -36 -5 -38q-16 -111 -89 -196q-99 -115 -242 -133q-201 -26 -340 121q-86 89 -102 219q-1 3 -2 40v6h8h765h7v-19zM529 802q5 -4 5 -5q15 -8 18 -33q1 -1 -1 -8l-1 -2q-28 -32 1 -75q27 -41 32 -64q9 -47 -23 -80q-10 -11 -25 -12q-7 0 -22 10
q-6 3 -8.5 14.5t-0.5 18.5q6 18 10 35q1 5 -2 10q-6 12 -18.5 34.5t-18.5 33.5q-14 26 -10.5 54t25.5 50q9 10 38 19h1zM365 802q5 -4 5 -5q16 -8 18 -33q1 -5 -2 -9q-28 -34 1 -77q27 -40 31 -63q10 -47 -22 -80q-10 -11 -26 -12q-7 0 -21 10q-6 4 -8.5 15t-0.5 18
q6 18 9 35q1 5 -1 10q-6 12 -18.5 34.5t-18.5 34.5q-14 25 -10.5 53t24.5 50q10 10 39 19h1zM694 802l4 -4q16 -9 19 -33q0 -2 -2 -8q0 -2 -2 -4q-26 -31 1 -72q29 -44 33 -66q9 -47 -22 -80q-10 -11 -26 -12q-7 0 -22 10q-5 3 -8 14.5t0 18.5q0 2 2.5 9t3.5 11q2 4 2.5 7.5
t0 8.5t-0.5 7.5t-2.5 8t-3 6.5t-3.5 8l-4 6q-2 5 -14 24q-20 30 -21 50q-1 23 3 37q7 24 35 45q0 1 13 5q1 0 12 3h2zM310 130q-8 -3 -61 -23v-1v-3q35 -14 37 -15q50 -17 126 -26q70 -8 151 -6q123 4 210 31q2 1 43 17q-18 11 -64 25l4 4q5 4 13.5 10.5t15.5 12t13.5 10.5
t11.5 2q4 -2 21 -11t25 -14q17 -11 23 -30q5 -16 -7 -31q-12 -17 -42 -32q-45 -22 -118 -35q-112 -20 -235 -14t-204 33q-20 7 -61 29q-7 3 -21 18q-9 10 -8.5 23.5t9.5 24.5q17 20 64 40q3 1 5 -1q15 -11 48 -37z" />
    <glyph glyph-name="uniE649" unicode="&#xe649;" horiz-adv-x="1029" 
d="M924 877h-829q-24 0 -47.5 -21t-23.5 -50v-72q0 -24 20.5 -47.5t50.5 -23.5h829q24 0 47.5 20.5t23.5 50.5v72q0 29 -23.5 50t-47.5 21zM924 482h-829q-24 0 -47.5 -21t-23.5 -51v-71q0 -24 20.5 -48t50.5 -24h829q24 0 47.5 21t23.5 51v76q0 30 -23 48.5t-48 18.5z
M924 105h-829q-24 0 -47.5 -20.5t-23.5 -50.5v-72q0 -23 20.5 -47t50.5 -24h829q24 0 47.5 21t23.5 50v86q0 21 -24 39t-47 18z" />
    <glyph glyph-name="uniE64A" unicode="&#xe64a;" 
d="M101 -27l-20 66q-19 63 -19 131q0 121 58 223.5t157.5 162.5t216.5 60q14 0 38 -1v143q0 21 10 32t25 11t30 -12l344 -275q21 -16 21 -41t-21 -42l-344 -275q-15 -12 -30 -12t-25 11t-10 32v136q-24 1 -38 1q-129 0 -232 -79t-141 -206zM494 575q-106 0 -196 -54.5
t-142.5 -147.5t-52.5 -203q0 -27 4 -54q54 114 158 181t229 67q25 0 59 -1l19 -1v-173l343 274q6 5 6 10t-6 9l-343 275v-184h-21q-33 2 -57 2z" />
    <glyph glyph-name="uniE64B" unicode="&#xe64b;" horiz-adv-x="1076" 
d="M1013 208q12 7 18.5 16.5t7.5 15.5l1 6v573q0 2 -0.5 5t-3 11t-7 13.5t-14.5 9.5t-23 1q-187 -31 -355 17q-68 19 -131.5 19t-97.5 -9t-62 -23q-6 -3 -10 -16.5t-4 -25.5v-12q26 2 48 2q124 0 215 -41.5t102 -102.5h2v-467q65 -26 132.5 -28t109.5 9t72 27zM661 57h4v571
h-2q-11 61 -102 103t-215 42t-215 -42t-102 -103h-2v-571h4q17 -58 106.5 -97t209 -39t208.5 39t106 97zM346 549q-54 0 -92.5 19t-38.5 46t38.5 46t92.5 19t92.5 -19t38.5 -46t-38.5 -46t-92.5 -19z" />
    <glyph glyph-name="uniE64C" unicode="&#xe64c;" 
d="M511.5 865q98.5 0 188.5 -41t154.5 -110.5t103 -165.5t38.5 -201q0 -53 -10 -105h27q10 52 10 105q0 111 -40.5 212.5t-109 174.5t-163 116t-198.5 43t-198.5 -43t-163 -116t-109 -174.5t-40.5 -212.5q0 -150 70.5 -276.5t188.5 -198.5l18 30q-7 32 -7 62q0 89 44 161.5
t117 109.5v26q-41 28 -65 74t-24 100q0 85 57 145.5t137 60.5t136.5 -60.5t56.5 -145.5q0 -49 -19.5 -91t-53.5 -71v-32q75 -33 123 -105t50 -162h18l3 4q-4 92 -52.5 167.5t-125.5 112.5q36 32 57 78t21 99q0 94 -63 161t-151.5 67t-151 -67t-62.5 -161q0 -57 23.5 -105.5
t65.5 -80.5q-73 -41 -117.5 -117t-44.5 -168q0 -26 5 -56q-104 70 -165.5 186t-61.5 253q0 105 38.5 201t103 165.5t154 110.5t188 41z" />
    <glyph glyph-name="uniE64D" unicode="&#xe64d;" 
d="M369 586q67 -13 135 -13q60 0 118 10q10 1 11 11t-8 14q-39 17 -81 24l13 15q12 14 -0.5 28.5t-36.5 14.5h-48q-24 0 -36.5 -14.5t0.5 -28.5l12 -14q-42 -6 -81 -22q-9 -4 -8 -13.5t10 -11.5zM968 425q-3 65 -50 110.5t-112 46.5q-52 0 -95 -30q-16 15 -37 10
q-83 -20 -170 -20q-96 0 -187 24q-21 5 -37 -8q-6 -5 -11 -10q-15 -14 -35.5 -15.5t-36.5 10.5l-41 28q-14 11 -32 11h-47q-14 0 -21 -13t1 -25l69 -110q28 -45 13 -95q-18 -63 3 -124t74 -100t121 -39h311q83 0 140.5 55t64.5 132q52 16 84.5 61t30.5 101zM874 363
q-8 -10 -20.5 -8.5t-18.5 13.5q-4 8 -9 17l-50 87q-6 11 -1 22t17 13q9 1 17 1q34 -2 58.5 -27t26.5 -59q1 -33 -20 -59z" />
    <glyph glyph-name="uniE64E" unicode="&#xe64e;" 
d="M517 894q-123 0 -210.5 -87t-87.5 -211q0 -85 44 -155.5t116 -108.5q-206 -54 -302 -227q-25 -46 -40 -98.5t-17.5 -74t-2.5 -31.5q0 -9 6.5 -16t15.5 -7h1q9 0 15.5 6.5t7.5 15.5q0 8 2 27.5t16 67t37 89.5q100 181 335 216q10 0 30.5 -0.5t22.5 -0.5h11q123 0 210.5 87
t87.5 211q0 123 -87.5 210t-210.5 87zM521 348h-1q-2 1 -3 1h-11q-99 4 -168 76t-69 172q0 102 73 175t175 73q103 0 175.5 -73t72.5 -175t-71.5 -175t-172.5 -74zM866 219q-8 5 -17 3t-14.5 -10t-3.5 -17t10 -14q3 -2 13.5 -10.5t30.5 -32t36.5 -53.5t28 -79.5t10.5 -104.5
q-1 -9 5.5 -16t16.5 -7t16.5 6t6.5 16q2 62 -12 118t-32 89t-43 62t-34 36.5t-18 13.5z" />
    <glyph glyph-name="uniE64F" unicode="&#xe64f;" 
d="M329 455l376 2l-181 -499zM372 636l286 -3l51 -122l-371 3zM291 518l-227 104l122 99l145 -83zM64 562l215 -105l230 -495zM759 458l201 114l-423 -607zM755 519l-57 128l129 79l111 -103zM368 697l-49 14l-92 56l108 43h353l107 -49l-103 -55l-34 -9h-290v0zM368 697z
" />
    <glyph glyph-name="uniE650" unicode="&#xe650;" 
d="M665 366q-120 -119 -143 -144q-6 -6 -10 -6t-10 6q-141 143 -287 287q-10 11 0 20q4 2 9 8t9 10t8 4q5 1 9.5 -2.5t9.5 -10.5t8 -10q139 -138 234 -234q6 -6 10 -6t10 6q39 40 123 123.5t127 126.5q11 12 21 0q3 -3 8.5 -7.5t9.5 -8.5t4 -8q0 -5 -3.5 -9t-10 -9.5
t-8.5 -7.5z" />
    <glyph glyph-name="uniE651" unicode="&#xe651;" 
d="M359 402q120 119 143 144q6 6 10 6t10 -6q141 -143 287 -287q10 -11 0 -20q-4 -2 -9 -8t-9 -10t-8 -4q-5 -1 -9.5 2.5t-9.5 10.5t-8 10q-139 138 -234 234q-6 6 -10 6t-10 -6q-39 -40 -123 -123.5t-127 -126.5q-11 -12 -21 0q-3 3 -8.5 7.5t-9.5 8.5t-4 8q0 5 3.5 9
t10 9.5t8.5 7.5z" />
    <glyph glyph-name="uniE652" unicode="&#xe652;" 
d="M803 -128l-569 512l569 512v-1024z" />
    <glyph glyph-name="uniE653" unicode="&#xe653;" 
d="M615 32v290q120 92 287 64q13 -111 -58.5 -212t-182.5 -142h-46zM409 32h148v367q70 23 114 76.5t53 114t-16 121.5t-83 98l-41 -118l-71 107l-71 -105l-39 116q-59 -37 -83.5 -98.5t-14 -121.5t55.5 -113.5t115 -77.5v-154q-52 84 -148.5 127.5t-216.5 23.5
q-9 -75 11.5 -138t64.5 -106.5t99.5 -73t122.5 -45.5z" />
    <glyph glyph-name="uniE654" unicode="&#xe654;" 
d="M513 703q-12 8 -26 15.5t-49 22t-67.5 22.5t-76.5 9t-82 -10.5t-78.5 -43.5t-70.5 -84q-86 -240 163 -460q122 -108 279 -179l7 -3l76 36q226 118 327 274q103 159 49 331q-26 57 -68.5 91.5t-88.5 43.5t-93.5 6.5t-88.5 -16.5t-70.5 -28.5t-41.5 -26.5l-1 -48l18 11
q19 10 46 23t62.5 26.5t74.5 17.5t76.5 -1t72.5 -30t60 -69q71 -249 -160 -447q-110 -94 -245 -149l-5 -1q-7 3 -19 8.5t-48 25.5t-70 41.5t-78.5 56t-80 70t-67.5 82.5t-49 94.5t-16 104.5t24 114q31 44 69.5 69.5t76 30t75 0t70 -18t57.5 -26.5t40 -23l16 -10z" />
    <glyph glyph-name="uniE655" unicode="&#xe655;" 
d="M796 468h-568l284 386zM228 300h568l-284 -386z" />
    <glyph glyph-name="uniE656" unicode="&#xe656;" 
d="M774 38v605l-87 -35v-570h87zM705 567l47 18v-62l-47 -15v59zM705 481l47 15v-62l-47 -12v59zM705 395l47 12v-62l-47 -10v60zM705 309l47 9v-62l-47 -7v60zM705 222l47 7v-62l-47 -4v59zM752 140v-62l-47 -1v59zM364 807l-324 -128v-641h324v769zM128 85l-61 -2v67l61 5
v-70zM128 186l-61 -6v67l61 8v-69zM128 286l-61 -9v67l61 12v-70zM128 387l-61 -13v67l61 15v-69zM128 487l-61 -16v67l61 19v-70zM128 588l-61 -20v68l61 21v-69zM221 88l-66 -2v71l66 4v-73zM221 194l-66 -6v71l66 9v-74zM221 300l-66 -10v71l66 13v-74zM221 406l-66 -13
v70l66 17v-74zM221 512l-66 -17v70l66 21v-74zM221 619l-66 -22v70l66 25v-73zM326 92l-74 -3v75l74 5v-77zM326 204l-74 -7v75l74 9v-77zM326 316l-74 -11v74l74 14v-77zM326 428l-74 -15v74l74 19v-78zM326 540l-74 -19v74l74 23v-78zM252 628v75l74 27v-77zM984 38v522
l-209 83h-1v-605h-87v570v71l-323 128v-769h-324h-40v-44h1024v44h-40zM926 538l39 -14v-55l-39 13v56zM926 457l39 -13v-54l-39 10v57zM926 375l39 -10v-55l-39 9v56zM926 293l39 -7v-55l-39 6v56zM926 212l39 -5v-55l-39 4v56zM926 130l39 -3v-54l-39 1v56zM865 560
l43 -15v-57l-43 14v58zM865 475l43 -13v-57l-43 11v59zM865 390l43 -11v-57l-43 9v59zM865 305l43 -8v-57l-43 6v59zM865 220l43 -6v-57l-43 4v59zM865 135l43 -3v-57l-43 1v59zM798 585l47 -18v-59l-47 15v62zM798 496l47 -15v-59l-47 12v62zM798 407l47 -12v-60l-47 10v62
zM798 318l47 -9v-60l-47 7v62zM798 229l47 -7v-59l-47 4v62zM798 140l47 -4v-59l-47 1v62zM600 85v70l60 -5v-67zM660 180l-60 6v69l60 -8v-67zM660 277l-60 9v70l60 -11v-68zM660 375l-60 12v70l60 -15v-67zM660 539v-67l-60 16v69zM600 658l60 -22v-67l-60 19v70zM506 692
l66 -24v-71l-66 22v73zM506 586l66 -21v-70l-66 18v73zM506 480l66 -17v-70l-66 14v73zM506 374l66 -13v-70l-66 10v73zM506 268l66 -9v-71l-66 7v73zM506 162l66 -5v-71l-66 2v74zM401 730l74 -27v-74l-74 24v77zM401 618l74 -23v-74l-74 20v77zM401 506l74 -19v-74l-74 15
v78zM401 394l74 -14v-75l-74 11v78zM401 282l74 -10v-75l-74 7v78zM401 169l74 -5v-75l-74 3v77z" />
    <glyph glyph-name="uniE657" unicode="&#xe657;" 
d="M961 775q0 24 -17 39q-17 17 -40 17h-782q-22 0 -39 -17q-16 -15 -16 -39v-612q0 -24 16 -39q17 -18 39 -18h279v-111h-112v-57h447v57h-111v111h279q23 0 40 17.5t17 39.5v612zM460 218h112v-57h-112v57zM906 273h-782v500h782v-500z" />
    <glyph glyph-name="uniE658" unicode="&#xe658;" 
d="M274 896l-36 -37l475 -475l-475 -475l36 -37l512 512z" />
    <glyph glyph-name="uniE659" unicode="&#xe659;" 
d="M889 -47h-754q-6 0 -10 4t-4 9v687h781v-687q0 -5 -4 -9t-9 -4zM511.5 545q-100.5 0 -171.5 -71t-71 -171t71 -171t171.5 -71t171.5 71t71 171t-71 171t-171.5 71zM512 87q-89 0 -152.5 63.5t-63.5 152.5t63.5 152t152.5 63t152 -63t63 -152t-63 -152.5t-152 -63.5z
M511.5 478q-72.5 0 -123.5 -51.5t-51 -124t51 -123.5t123.5 -51t124 51t51.5 123.5t-51.5 124t-124 51.5zM511.5 155q-61.5 0 -104.5 43.5t-43 104.5t43 104.5t104.5 43.5t105 -43.5t43.5 -104.5t-43.5 -104.5t-105 -43.5zM121 801q0 6 4 10t10 4h754q5 0 9 -4t4 -10v-121
h-781v121zM417.5 720q11.5 0 19 8t7.5 19.5t-7.5 19t-19 7.5t-19 -7.5t-7.5 -19t7.5 -19.5t19 -8zM310 720q11 0 19 8t8 19.5t-8 19t-19 7.5t-19 -7.5t-8 -19t8 -19.5t19 -8zM202 720q11 0 19 8t8 19.5t-8 19t-19 7.5t-19 -7.5t-8 -19t8 -19.5t19 -8z" />
    <glyph glyph-name="uniE65A" unicode="&#xe65a;" 
d="M512 212q74 0 126 52.5t52 126.5v164q0 73 -52 125.5t-126 52.5t-126.5 -52.5t-52.5 -125.5v-164q0 -74 52.5 -126.5t126.5 -52.5zM373 555q0 57 40.5 97.5t98 40.5t98 -40.5t40.5 -97.5v-164q0 -57 -40.5 -98t-98 -41t-98 41t-40.5 98v164zM373 555zM771 394h-41
q0 -91 -64 -155t-154.5 -64t-154.5 64t-64 155h-40q0 -102 69 -176t170 -82v-63h-107v-40h254v40h-107v63q100 8 169.5 82t69.5 176zM771 394z" />
    <glyph glyph-name="uniE65B" unicode="&#xe65b;" 
d="M957 491.5q-6 18.5 -25 21.5l-271 42l-120 259q-9 18 -29 18q-21 0 -29 -18l-122 -258l-271 -41q-19 -3 -25.5 -21.5t7.5 -32.5l196 -202l-47 -285q-3 -20 13.5 -31.5t33.5 -1.5l242 133l242 -134q7 -4 15 -4h1q13 0 22.5 9.5t9.5 22.5q0 6 -2 11l-45 279l197 201
q13 14 7 32.5z" />
    <glyph glyph-name="uniE65C" unicode="&#xe65c;" 
d="M896 640h-288q-13 0 -22.5 9.5t-9.5 22.5t9.5 22.5t22.5 9.5h288q13 0 22.5 -9.5t9.5 -22.5t-9.5 -22.5t-22.5 -9.5zM896 480h-288q-13 0 -22.5 9.5t-9.5 22.5t9.5 22.5t22.5 9.5h288q13 0 22.5 -9.5t9.5 -22.5t-9.5 -22.5t-22.5 -9.5zM896 224h-288q-13 0 -22.5 9.5
t-9.5 22.5t9.5 22.5t22.5 9.5h288q13 0 22.5 -9.5t9.5 -22.5t-9.5 -22.5t-22.5 -9.5zM896 64h-288q-13 0 -22.5 9.5t-9.5 22.5t9.5 22.5t22.5 9.5h288q13 0 22.5 -9.5t9.5 -22.5t-9.5 -22.5t-22.5 -9.5zM384 416h-192q-40 0 -68 28t-28 68v192q0 40 28 68t68 28h192
q40 0 68 -28t28 -68v-192q0 -40 -28 -68t-68 -28zM192 736q-13 0 -22.5 -9.5t-9.5 -22.5v-192q0 -13 9.5 -22.5t22.5 -9.5h192q13 0 22.5 9.5t9.5 22.5v192q0 13 -9.5 22.5t-22.5 9.5h-192zM384 -32h-192q-40 0 -68 28t-28 68v192q0 40 28 68t68 28h192q40 0 68 -28t28 -68
v-192q0 -40 -28 -68t-68 -28zM192 288q-13 0 -22.5 -9.5t-9.5 -22.5v-192q0 -13 9.5 -22.5t22.5 -9.5h192q13 0 22.5 9.5t9.5 22.5v192q0 13 -9.5 22.5t-22.5 9.5h-192z" />
    <glyph glyph-name="uniE65D" unicode="&#xe65d;" 
d="M877 24q-18 9 -47 23t-93 38t-97 27v23q89 39 142 125t53 195q0 94 -43.5 173.5t-118.5 125.5t-163 46t-163 -46.5t-118.5 -125.5t-43.5 -173q0 -110 54 -197t145 -124v-22h-1q-31 -2 -90 -24t-102.5 -42.5t-43.5 -21.5l-5 -6q-4 -3 -9.5 -11.5t-4.5 -14.5q2 -10 10 -17
t19 -7h266h178h265q11 0 19 6.5t11 16.5q0 4 -1.5 9t-4 9t-5.5 7l-5 6z" />
    <glyph glyph-name="uniE65E" unicode="&#xe65e;" 
d="M512 -32q-45 0 -87 41l-319 323q-25 31 -37.5 49.5t-24.5 54t-12 76.5q0 106 75 181t181 75q81 0 147 -47q11 -7 13.5 -20t-5.5 -24t-21 -13.5t-24 5.5q-49 35 -110 35q-79 0 -135.5 -56.5t-56.5 -135.5q0 -42 13 -69.5t46 -69.5l316 -318q22 -23 41 -23t42 23l316 320
q58 63 58 137q0 80 -56 136t-136 56q-74 0 -129 -50l-134 -134q-10 -10 -23 -10t-22.5 9.5t-9.5 23t9 22.5l135 135q75 68 174 68q106 0 181 -75t75 -181q0 -100 -76 -181l-317 -321q-42 -42 -87 -42z" />
    <glyph glyph-name="uniE65F" unicode="&#xe65f;" 
d="M890.5 565q-9.5 9 -23 9t-22.5 -9l-328 -331l-332 329q-10 10 -23 10t-22.5 -9.5t-9.5 -23t10 -22.5l353 -350h1l1 -1v-1q10 -9 23 -9t22 9l350 354q10 9 10 22.5t-9.5 22.5z" />
    <glyph glyph-name="uniE660" unicode="&#xe660;" 
d="M672 -16q-20 0 -34 14l-352 352q-14 14 -14 34t14 34l352 352q14 14 34 14t34 -14t14 -34t-14 -34l-318 -318l318 -318q14 -14 14 -34t-14 -34t-34 -14z" />
    <glyph glyph-name="uniE661" unicode="&#xe661;" 
d="M143 511q-10 0 -17.5 7.5t-7.5 18.5v145q0 42 30.5 69t77.5 27h146q11 0 18.5 -7.5t7.5 -18t-7.5 -18t-18.5 -7.5h-146q-23 0 -40 -11t-17 -34v-145q0 -11 -7.5 -18.5t-18.5 -7.5zM143 511zM372 -10h-146q-45 0 -76.5 31.5t-31.5 76.5v146q0 11 7.5 18.5t18 7.5t18 -7.5
t7.5 -18.5v-146q0 -23 17 -40t40 -17h146q11 0 18.5 -7.5t7.5 -18t-7.5 -18t-18.5 -7.5zM372 -10zM810 -10h-158q-11 0 -18.5 7.5t-7.5 18t7.5 18t18.5 7.5h158q23 0 34 17t11 40v146q0 11 7.5 18.5t18 7.5t18 -7.5t7.5 -18.5v-146q0 -47 -27 -77.5t-69 -30.5zM810 -10z
M881 511q-11 0 -18.5 7.5t-7.5 18.5v145q0 45 -45 45h-158q-11 0 -18.5 7.5t-7.5 18t7.5 18t18.5 7.5h158q44 0 70 -26t26 -70v-145q0 -11 -7.5 -18.5t-17.5 -7.5zM881 511zM754 371h-624q-5 0 -8.5 4t-3.5 9t3.5 9t8.5 4h624q5 0 8.5 -4t3.5 -9t-3.5 -9t-8.5 -4zM754 371z
M894 371h-89q-6 0 -9.5 4t-3.5 9t3.5 9t9.5 4h89q5 0 8.5 -4t3.5 -9t-3.5 -9t-8.5 -4zM894 371z" />
    <glyph glyph-name="uniE662" unicode="&#xe662;" 
d="M416 466v73v225h-230h-68v-73v-225h229h69zM186 539v152h161v-152h-161zM906 466v298h-229h-69v-73v-225h230h68zM677 539v152h161v-152h-161zM676 233h99v69h-99h-68v-69v-98h68v98zM756 351h149v69h-149v-69zM477 4h68v149h-68v-149zM478 615h68v149h-68v-149zM267 419
h-149v-69h149v69zM833 302v-230h-225v-68h298v298h-73zM118 302v-73v-225h229h69v73v225h-230h-68zM347 229v-152h-161v152h161zM544 246v297h-68v-123h-106v-69h106v-105h68z" />
    <glyph glyph-name="uniE663" unicode="&#xe663;" 
d="M300 832l447 -448l-447 -447v895zM300 832z" />
    <glyph glyph-name="uniE664" unicode="&#xe664;" 
d="M887 279l-353 350l-1 1h-1v1q-10 9 -23 9t-22 -10l-350 -353q-10 -9 -10 -22.5t9.5 -22.5t23 -9t22.5 9l328 331l332 -330q10 -9 23 -9t22.5 9.5t9.5 23t-10 22.5z" />
    <glyph glyph-name="uniE665" unicode="&#xe665;" 
d="M528 521l313 282q12 11 1 23t-22 1l-308 -278l-308 278q-11 11 -22 -1t1 -23l313 -282v-9h-352q-6 0 -11 -4.5t-5 -11.5t5 -11.5t11 -4.5h352v-192h-352q-7 0 -11.5 -4.5t-4.5 -11.5t4.5 -11.5t11.5 -4.5h352v-296q0 -7 4.5 -11.5t11.5 -4.5t11.5 4.5t4.5 11.5v296h352
q7 0 11.5 4.5t4.5 11.5t-4.5 11.5t-11.5 4.5h-352v192h353q7 0 11.5 4.5t4.5 11.5t-4.5 11.5t-11.5 4.5h-353v9z" />
    <glyph glyph-name="uniE666" unicode="&#xe666;" 
d="M320 575v130h641v-130h-641zM64 193h128v-128h-128v128zM64 449h128v-128h-128v128zM64 705h128v-128h-128v128zM960 319h-640v130h640v-130zM960 63h-640v130h640v-130z" />
    <glyph glyph-name="uniE667" unicode="&#xe667;" 
d="M649 40l-7 23q-2 7 -62 55l-57 48q-21 17 -56 49.5t-54.5 56.5t-35 53t-15.5 52q1 84 45 132t102 48q43 0 80 -25.5t60 -70.5q23 43 60 68t81 25q58 0 102 -45.5t44 -130.5q0 -23 -15 -51.5t-34 -52t-53.5 -56t-55 -50t-56.5 -46.5q-63 -52 -65 -59zM509 542
q-52 0 -92 -42.5t-40 -122.5q0 -21 15.5 -49t35 -51t53.5 -55t54 -48.5t54 -43.5q50 -41 60 -52q11 12 63 55q34 27 53.5 43.5t53.5 48.5t53 54.5t34.5 50t14.5 48.5q0 78 -39.5 120t-92.5 42q-42 0 -78 -26.5t-55 -72.5l-7 -16l-7 16q-20 47 -55.5 74t-77.5 27zM375 40
l-7 23q-2 7 -63 55l-57 48q-21 17 -56 49.5t-54 56.5t-34.5 53t-15.5 52q0 84 44 132t103 48q43 0 79.5 -25.5t60.5 -70.5q22 43 59.5 68t80.5 25q58 0 102 -45.5t45 -130.5q0 -23 -15.5 -51.5t-34.5 -52t-53.5 -56t-55 -50t-56.5 -46.5q-63 -52 -65 -59zM235 542
q-53 0 -92.5 -42.5t-40.5 -122.5q0 -21 15.5 -49t35 -51t54 -55t54.5 -48.5t54 -43.5q50 -41 60 -52q10 12 63 55q33 27 53 44t53.5 48.5t53 54t34.5 50t15 48.5q0 78 -40 120t-92 42q-42 0 -78 -27t-56 -72l-6 -16l-7 16q-21 47 -56 74t-77 27z" />
    <glyph glyph-name="uniE668" unicode="&#xe668;" 
d="M762 288l-250 -243l-243 243l-83 -83l326 -327l83 84l250 243zM768 480l-326 326l83 84l326 -327zM275 480l-83 83l326 327l84 -84z" />
    <glyph glyph-name="uniE669" unicode="&#xe669;" 
d="M512 384zM5 384h1014h-1014zM522 516q-63 0 -108 -45t-45 -108.5t45 -108t108 -44.5t108 44.5t45 108t-45 108.5t-108 45zM609 288q-31 -36 -78.5 -39.5t-83.5 27.5t-39.5 78.5t27.5 83.5t78.5 39.5t83.5 -27.5t39.5 -78.5t-27.5 -83.5zM522 439q-32 0 -54.5 -22
t-22.5 -54q0 -10 10 -10t10 10q0 24 16.5 40.5t40.5 16.5q10 0 10 9.5t-10 9.5zM780 534l-83 14l-26 66q-6 16 -21 26t-32 10h-192q-17 0 -31.5 -10t-21.5 -26l-26 -66l-83 -14q-21 -3 -34.5 -19t-13.5 -37v-287q0 -24 16.5 -41t40.5 -17h498q24 0 40.5 17t16.5 41v287
q0 21 -13.5 37t-34.5 19zM790 191q0 -8 -5.5 -14t-13.5 -6h-498q-8 0 -13.5 6t-5.5 14v287q0 16 16 19l104 17l35 86q4 12 17 12h192q13 0 18 -12l34 -86l104 -17q16 -3 16 -19v-287z" />
    <glyph glyph-name="uniE66A" unicode="&#xe66a;" 
d="M641 647q13 16 1 33q-5 8 -13.5 18t-36 35t-57.5 43t-78.5 33.5t-100 15.5t-99 -15.5t-77.5 -34.5t-56.5 -43.5t-34.5 -35.5t-13 -18q-12 -17 2 -33l194 -229l2 -2l2 -1l-46 -414q-5 -20 10 -38q19 -24 66 -24h125q27 0 47.5 14t20.5 41q0 28 -45 423v1h1zM304 464
l-25 102q-3 11 3 21t17.5 12.5t21 -3.5t12.5 -17l28 -115h-57zM321 313l6 55h76l6 -55h-88zM439 567l-19 -103h-56l21 113q2 12 11.5 18.5t20.5 4.5t17.5 -11.5t4.5 -21.5zM439 567zM921 467h-12v297q0 61 -41 61q-10 0 -21.5 -5.5t-19.5 -11.5t-24 -19q-26 -21 -41 -30
q-30 -19 -44.5 -45t-15.5 -47v-200h-19q-16 0 -27 -11.5t-11 -27.5v-453q0 -16 11 -27t27 -11h238q16 0 27 11t11 27v453q0 16 -11 27.5t-27 11.5zM870 81q0 -11 -8 -19t-19.5 -8t-19.5 8t-8 19v251q0 12 8 20t19.5 8t19.5 -8t8 -20v-251zM870 81z" />
    <glyph glyph-name="uniE66B" unicode="&#xe66b;" 
d="M832 832h-640q-53 0 -90.5 -37.5t-37.5 -90.5v-640q0 -53 37.5 -90.5t90.5 -37.5h640q53 0 90.5 37.5t37.5 90.5v640q0 53 -37.5 90.5t-90.5 37.5zM762 330l-224 -221q-10 -10 -24 -9q-13 0 -24 9l-224 221q-10 9 -10 22t9.5 23t23 10t22.5 -10l202 -199l203 199
q9 10 22.5 10t22.5 -10q10 -9 10.5 -22.5t-9.5 -22.5zM762 586l-224 -221q-10 -10 -24 -9q-13 -1 -24 9l-224 221q-10 9 -10 22t9.5 23t23 10t22.5 -10l202 -199l203 199q9 10 22.5 10t22.5 -10q10 -9 10.5 -22.5t-9.5 -22.5z" />
    <glyph glyph-name="uniE66C" unicode="&#xe66c;" 
d="M235 212q12 -13 12 -32.5t-12 -32.5q-13 -15 -38 -15q-23 0 -37 15q-11 13 -11 32.5t11 32.5q14 13 37 13q25 0 38 -13zM554 212q12 -13 12 -32.5t-12 -32.5q-13 -15 -37 -15t-38 15q-11 13 -11 32.5t11 32.5q14 13 38 13t37 -13zM873 212q12 -13 12 -32.5t-12 -32.5
q-13 -15 -37 -15t-38 15q-11 13 -11 32.5t11 32.5q14 13 38 13t37 -13z" />
    <glyph glyph-name="uniE66D" unicode="&#xe66d;" 
d="M352 784q20 0 34 -14l352 -352q14 -14 14 -34t-14 -34l-352 -352q-14 -14 -34 -14t-34 14t-14 34t14 34l318 318l-318 318q-14 14 -14 34t14 34t34 14z" />
    <glyph glyph-name="uniE66E" unicode="&#xe66e;" 
d="M150 781q-9 -23 -28 -41t-38 -27t-40 -14t-31 -6.5t-13 -1.5v-64q17 -14 43 -35.5t78 -57t71 -35.5t67 32t88 64t39 32l62 -64q-42 -35 -82 -64q-17 -13 -44.5 -29t-46.5 -25l-19 -10q2 -5 4.5 -15.5t8.5 -39.5t9.5 -56.5t2.5 -61t-9 -57.5q-12 -40 -32 -94t-34 -89
l-14 -35q-1 -2 -1.5 -6.5t1 -15.5t7 -19.5t20 -15.5t37.5 -7q15 0 31 16t25 32l8 16q27 68 66 127q18 27 34 43t23 18l7 3h191q40 -27 64 -64q20 -29 39 -66.5t24 -60.5q6 -26 22.5 -45t41.5 -19q26 0 45 19t19 45q0 2 -20 86.5t-36 177t-8 120.5q11 38 22.5 63.5t18 34.5
t23.5 30q9 11 42.5 37t59.5 50.5t26 40.5q0 17 -13.5 23.5t-27.5 4.5t-21 -6q-11 -7 -66 -46q-28 -20 -97 -59.5t-95 -44.5q-32 -5 -54.5 -5.5t-73.5 5.5q-29 4 -61 20t-49 30l-18 14l193 192l-65 64l-190 -192l-66 256q-35 -4 -73 -19q-78 -30 -97 -83z" />
    <glyph glyph-name="uniE66F" unicode="&#xe66f;" 
d="M851 838l-243 -407h211v-73h-258v-115h260v-72h-260v-241h-96v241h-258v72h258v115h-258v73h211l-245 407h106l235 -401l233 401h104z" />
    <glyph glyph-name="uniE670" unicode="&#xe670;" 
d="M492 135l1 -1t2 -1q13 -7 28.5 -4.5t26.5 14.5l334 353q14 15 13.5 34.5t-15 33.5t-34.5 13t-34 -15l-299 -317l-305 316q-13 14 -33 14.5t-35 -13.5q-14 -14 -14 -35q0 -19 13 -33l338 -350h1q1 -1 1 -1.5t1 -0.5v-1q2 -1 10 -6z" />
    <glyph glyph-name="uniE671" unicode="&#xe671;" 
d="M738 790q102 0 173.5 -72t71.5 -173q0 -104 -75 -177l-396 -397l-403 404q-68 72 -68 170q0 101 71.5 173t173.5 72q75 0 136.5 -42t89.5 -109q28 67 89.5 109t136.5 42zM738 831q-67 0 -126.5 -29.5t-99.5 -81.5q-40 52 -99.5 81.5t-126.5 29.5q-118 0 -202 -84
t-84 -202q0 -115 80 -198l403 -405l29 -29l29 29l396 397q87 84 87 206q0 118 -84 202t-202 84z" />
    <glyph glyph-name="uniE672" unicode="&#xe672;" horiz-adv-x="1257" 
d="M887 451q22 0 38 17.5t15 40.5q0 23 -17 39t-40 15q-22 0 -38.5 -18t-16 -40t18 -38.5t40.5 -15.5zM792 670q12 9 15 10q10 -14 29.5 -41.5t28.5 -41.5q-16 133 -143 231q-1 -69 35.5 -143.5t81.5 -96.5q-10 17 -27.5 48t-19.5 34zM1065 657q4 -4 13 -14q-86 -74 -97 -83
q73 22 134 75.5t75 106.5q-76 -16 -144 -64.5t-87 -101.5q20 16 56 43.5t50 37.5zM976 258q4 0 6.5 6t-2.5 10q-347 168 -448 216q-4 2 -10 2t-11 -1t-12.5 -3t-11.5 -2q-3 -2 -3 -6t3 -6q334 -162 392 -189q8 -5 15.5 -8t15.5 -5.5t12 -4t13.5 -3t11.5 -2t14.5 -2.5
t14.5 -2zM769 274q-27 13 -94.5 45t-116 56t-93.5 47q-26 15 -47 12t-42 -27q23 -11 73 -35t87.5 -42.5t71.5 -37.5q68 -38 161 -18zM602 -78v1h113q292 0 365 1q5 0 11 2.5t13 6.5t10 6q-2 4 -5 12.5t-6 14.5t-7 10q-34 30 -74 2q-55 -38 -109 -1q-38 26 -78 -1
q-53 -35 -105 1q-39 26 -78 -1q-52 -36 -102 -2q-42 29 -85 0q-49 -33 -98 0q-43 29 -85 0q-46 -31 -102 1q-33 19 -50 12q-15 -5 -28.5 -17t-15.5 -23q-1 -9 1 -15t8.5 -8t11 -2.5t13.5 0.5t12 1q86 -1 470 -1zM1112 131q5 45 -1 52.5t-48 7.5h-930q-37 0 -45 -11.5
t-1 -47.5q60 34 115 3q12 -7 31.5 -6.5t32.5 7.5q63 36 113 1q38 -27 74 -1q48 36 113 1q13 -7 33.5 -7t34.5 7q58 33 117 -1q12 -8 32 -7.5t33 7.5q60 35 117 0q12 -7 29.5 -9t27.5 4q53 35 122 0zM85 28q61 30 125 -11q10 -5 27 -2.5t30 10.5q61 34 110 0q39 -27 77 0
q52 38 105 1q40 -28 77 -2q54 39 109 0q37 -26 74 0q50 36 113 0q13 -7 31.5 -8.5t29.5 5.5q24 15 37 21t34 5.5t48 -11.5q-5 15 -5.5 26.5t-1.5 17.5t-8 14q-12 15 -28.5 16.5t-29.5 -4t-32 -16.5q-45 -28 -91 5q-41 29 -81 1q-52 -37 -105 0q-39 28 -77 1q-53 -38 -105 -1
q-40 27 -78 1q-54 -39 -109 0q-37 27 -73 0q-50 -35 -114 0q-12 7 -31.5 7t-33.5 -5q-15 -6 -21 -13.5t-6 -14t1.5 -20t1.5 -23.5zM1257 777q-35 -60 -37 -64q-79 -132 -216 -184q-30 -11 -34.5 -38t19.5 -47q7 -5 22 -18t23 -20q75 -60 110 -129.5t23 -158.5
q-4 -30 -4.5 -60t1.5 -77.5t2 -59.5q0 -26 -11.5 -37.5t-36.5 -11.5q-588 1 -1037 0q-47 0 -47 49q0 29 -0.5 87t0 103.5t2.5 86.5q1 48 36 65q270 176 531 336q30 18 83 11q15 -2 30.5 -7t37.5 -13.5t34 -12.5q-113 140 -104 313q184 -101 229 -306q133 190 344 202v-9z
" />
    <glyph glyph-name="uniE673" unicode="&#xe673;" 
d="M366 290l-6 -104q-24 24 -55 24q-39 0 -65.5 -35t-26.5 -86.5t26.5 -87t65.5 -35.5q23 0 44 14q22 16 35 44.5t13 63.5v130q0 13 3 27q-11 27 -34 45zM353 56q-6 -22 -19.5 -36.5t-28.5 -14.5q-22 0 -37.5 24.5t-15.5 58.5t15.5 58.5t37.5 24.5q18 0 32.5 -18.5
t18.5 -46.5q1 -9 1 -18q0 -17 -4 -32zM645 8q-22 4 -38 16q0 1 -2 2q13 28 13 62q0 52 -27 87t-66 35q-31 0 -55 -24l-33 582q0 9 -6.5 15.5t-15.5 6.5t-16 -6.5t-7 -15.5l-25 -449q30 -13 48 -40t18 -61v-130q0 -35 13.5 -63.5t35.5 -44.5q20 -14 43 -14q33 0 59 26
q23 -17 54 -23h3q17 0 20 16q1 8 -3.5 14.5t-12.5 8.5zM415.5 330q-7.5 0 -13 5.5t-5.5 13.5t5.5 13.5t13 5.5t13 -5.5t5.5 -13.5t-5.5 -13.5t-13 -5.5zM525 5q-15 0 -28.5 14.5t-19.5 36.5q-4 15 -4 32q0 9 1 18q5 28 19 46.5t32 18.5q22 0 37.5 -24.5t15.5 -58.5
t-15.5 -58.5t-37.5 -24.5zM779 790h-5h-6h-157v-25h130v-1v-1v-26h-130v-25h130v-28h-130v-25h130v-28h-130v-25h130v-28h-130v-25h130v-29h-130v-25h130v-28h-130v-25h130v-28h-130v-25h130v-400q0 -11 8 -19t19 -8h11q11 0 19 8t8 19v770q0 11 -8 19t-19 8z" />
    <glyph glyph-name="uniE674" unicode="&#xe674;" 
d="M420 475q-4 6 -12 16q-14 18 -32 33q-83 70 -183 39q-10 -4 -22 -11q-24 -14 -43 -32q-40 -36 -55.5 -79.5t-4.5 -98.5t53 -115l-1 1v0h1v-2q1 -1 3 -4q4 -7 10 -15q18 -26 41 -54q72 -89 162 -163q30 -24 62 -47l7 -5l9 4q10 4 27 15q33 20 68 48q112 89 203 225v1v0v1
h1q0 1 1 3l4 8q8 16 14 32q26 73 16 135q-18 113 -152 156h-2v0v0l-1 1h-4q-7 1 -15 2q-23 1 -48 -4q-77 -17 -132 -89q-9 -13 3.5 -22.5t22.5 3.5q47 62 113 76q20 5 40 4q6 -1 11 -1q1 -1 3 -1v0v0v0q115 -37 130 -130q8 -54 -15 -119q-6 -15 -12 -29q-2 -4 -4 -7l-1 -2
l-1 -1v0v0q-87 -131 -195 -217q-33 -27 -65 -46q-9 -6 -18 -10q-4 -2 -5 -3l16 -2q-31 22 -60 46q-88 72 -158 158q-22 27 -40 52q-5 8 -9 15q-2 2 -3 4v1v0v0q-106 153 1 251q18 16 38 28q10 6 17 9q81 26 151 -34q16 -13 28 -29q7 -7 10 -12q8 -14 21.5 -5.5t5.5 22.5z
M652 743q-15 23 -41 45q-78 64 -171 36q-9 -4 -20 -11q-22 -12 -40 -29q-107 -95 -28 -235q4 -6 10 -7.5t12 1.5t8 9.5t-2 12.5q-66 117 21 196q16 14 35 25q9 5 15 7q75 23 140 -30q14 -12 25 -26q6 -7 9 -11q8 -13 21.5 -4.5t5.5 21.5zM786 359q75 69 137 161l1 1v0v0
q1 1 1 3q2 3 5 8q6 13 12 29q25 66 16 123q-17 103 -143 142l-1 1v0h-1h-1q-2 0 -4 1q-6 0 -13 1q-22 1 -45 -4q-72 -15 -122 -81q-10 -12 2.5 -22t22.5 3q43 56 104 69q19 4 37 3q5 0 10 -1h2l1 -1v0v0q105 -33 119 -117q8 -48 -14 -106q-5 -14 -11 -26q-2 -4 -4 -7
q0 -1 -1 -2v0v0v0q-60 -88 -131 -155q-12 -11 -1 -22.5t22 -0.5z" />
    <glyph glyph-name="uniE675" unicode="&#xe675;" 
d="M512 -128q-237 0 -345.5 85.5t-108.5 264.5q0 145 98.5 279t238.5 183h234q140 -49 238.5 -183t98.5 -279q0 -179 -108.5 -264.5t-345.5 -85.5zM638 258q16 1 27 12t11 27t-11 27.5t-27 11.5h-78v1v1l91 94q18 20 -8 45q-11 12 -26.5 13.5t-25.5 -7.5l-78 -84l-85 85
q-8 8 -21.5 5.5t-25 -13.5t-13.5 -25t6 -22l86 -86q-2 -3 -3 -7h-70h-1q-16 0 -27 -11.5t-11 -27.5t11 -27.5t27 -11.5h1h77v-38h-77h-1q-16 0 -27 -11.5t-11 -27.5t11 -27.5t27 -11.5l1 1v-1h77v-38h1q-1 -5 -1 -10q0 -20 14 -34t34 -14t34 14t14 34q0 5 -1 10h1v38l78 1
q16 0 27 11t11 27t-11 27.5t-27 11.5h-78v38h78zM696 838l-9 -10v-1l-69 -86h-232l-68 86v1q-1 0 -1 1l-8 9l1 3q-1 5 -1 7q0 20 19 27v2q96 19 174 19q37 0 80.5 -5t68.5 -9l25 -5l1 -2q19 -7 19 -27q0 -2 -2 -7z" />
    <glyph glyph-name="uniE676" unicode="&#xe676;" 
d="M67 112q0 -28 20 -48t49 -20h755q28 0 48.5 20t20.5 48v325h-893v-325zM960 551q0 28 -20.5 48.5t-48.5 20.5h-755q-29 0 -49 -20.5t-20 -48.5v-24h893v24z" />
    <glyph glyph-name="uniE677" unicode="&#xe677;" 
d="M151 488l-51 -78l94 -58q1 -1 3 -2t8 -5.5t11 -10t10 -13.5t7 -16.5t1 -20.5t-7 -24q-13 -25 -54.5 -70.5t-75.5 -78t-35 -32.5l122 -76q27 56 48 100.5t27 57.5t12 27.5t14 39.5q18 49 16.5 89t-27.5 67q-36 36 -53 50.5t-70 53.5zM465 587l29 56l-113 32l-5 -17
q-4 -10 -16 -39.5t-26 -55.5t-35.5 -56.5t-44.5 -49.5q5 -3 13 -8t25.5 -14.5t28.5 -16t11 -5.5q32 31 60 67q29 13 53 23q-49 -88 -89 -130l48 -42q32 32 68 69h40v-69h-157v-56h157v-133h-3h-3q-43 3 -55 21q-6 9 -6.5 22.5t1.5 33.5t2 25h-108l-4 -2q-1 -4 -2 -10.5
t-2 -25t0.5 -35t8.5 -37t19.5 -35t35.5 -24t55 -8.5q169 -4 267 71l16 -59l90 37l-61 148l-72 -22l13 -51q-26 -20 -63 -32v116h154v56h-154v69h154v56h-274q34 41 40 60l-48 13q320 114 318 -60v-317q0 -2 0.5 -6t-1 -15t-4.5 -21.5t-11 -22t-19.5 -20t-31.5 -13.5t-46 -3
l-67 14l-16 -64q6 -1 16.5 -3.5t41.5 -7t59 -4.5t63.5 7t62 23t47 48t25.5 78q7 63 8.5 124.5t0 101.5t-5.5 76.5t-5.5 47.5t-3.5 17q0 4 -2 11.5t-13.5 26t-29.5 34t-55 29.5t-85 18t-124.5 -5t-169.5 -36zM217.5 518q33.5 0 57 23t23.5 56.5t-23.5 57t-57 23.5t-57 -23.5
t-23.5 -57t23.5 -56.5t57 -23z" />
    <glyph glyph-name="uniE678" unicode="&#xe678;" 
d="M599 629h-130v-66h130v66zM821 773h-635q-42 0 -72 -30t-30 -73v-551l368 -288q28 -21 54 -21q7 0 14.5 2t13.5 5t10.5 6t7.5 6l3 2l368 312v527q0 43 -30 73t-72 30zM399 665l23 -8q-13 -42 -28 -79v-225h-23v177q-14 -25 -29 -47q-4 13 -10 26q43 64 67 156zM473 56
h-103v102q-10 5 -25.5 13t-47 29.5t-43.5 40t-19 63t-7.5 66t-0.5 34.5h41q1 -3 2.5 -9t7 -21.5t12.5 -28t18.5 -25.5t25.5 -18q49 -20 94 -48.5t45 -54.5v-143zM425 370q-8 9 -18 19q57 32 92 88h-84v22h107v43h-53v-14h-25v122h179v-120h-24v12h-54v-43h105v-22h-87
q30 -49 90 -77q-10 -14 -16 -24q-60 37 -92 99v-124h-23v125q-39 -70 -97 -106zM739 240q-13 -18 -43.5 -38.5t-55.5 -31.5l-24 -12v-102h-102v143q0 26 46 54.5t97 48.5q22 8 37.5 33.5t19.5 47.5l4 21h41v-77q-4 -63 -20 -87z" />
    <glyph glyph-name="uniE679" unicode="&#xe679;" 
d="M782 568.5q-39 38.5 -94 38.5t-93.5 -38.5t-38.5 -93.5t38.5 -94t93.5 -39t94 39t39 94t-39 93.5zM643 429q-19 19 -19 46.5t19 46.5t46.5 19t46.5 -19t19 -46.5t-19 -46.5t-46.5 -19t-46.5 19zM957 546v50v107q0 17 -12.5 29t-29.5 12h-405q-19 0 -32 -14l-401 -402
q-12 -12 -12 -29.5t12 -29.5l404 -404q13 -13 30 -13t29 13l370 369q1 1 1 2h1q8 10 8 22q0 14 -9.5 24t-23.5 10q-18 0 -28 -15l-318 -318q-12 -12 -29.5 -12t-29.5 12l-310 310q-13 13 -13 30t13 29l334 334q12 13 29 13h311q17 0 29 -12.5t12 -29.5v-93v-185v0
q0 -14 10.5 -24.5t24.5 -10.5t24 9.5t10 23.5h1v182v11z" />
    <glyph glyph-name="uniE67A" unicode="&#xe67a;" horiz-adv-x="1025" 
d="M937 450h-127h-4q-3 0 -10 2t-12.5 6t-10 12.5t-4.5 20.5q-1 21 -1 46q0 11 21 36.5t21 47.5v42q0 4 -0.5 9.5t-4.5 20.5t-11.5 26.5t-24.5 21t-41 9.5h-44q-3 0 -7 -1.5t-15.5 -7t-21.5 -14t-21.5 -25t-19.5 -36.5q-10 -31 -24 -65.5t-40.5 -87.5t-54.5 -93.5t-65 -70
t-73 -29.5v44q0 2 -0.5 4.5t-3.5 10t-7 13t-13.5 10t-21.5 4.5h-252q-2 0 -5 -0.5t-10.5 -3t-13 -6.5t-10.5 -12.5t-5 -19.5v-470v-4q0 -3 2.5 -10.5t6.5 -13t12.5 -10.5t21.5 -5h66q64 0 127 -1h62q2 0 4.5 0.5t10.5 3.5t13.5 7t10.5 13t5 20l-2 42l86 1q3 0 8 -0.5
t18 -3.5t23.5 -7.5t21.5 -14t16 -21.5q7 -20 18 -29.5t18 -9.5l8 1h340q5 0 13.5 0.5t30.5 7t39 18.5t30.5 38t13.5 62v385q0 3 -0.5 9t-5.5 21t-13 26.5t-26 21t-42 9.5zM982 -22q0 -3 -1 -9t-6 -20.5t-13 -25.5t-25 -20.5t-40 -9.5h-299q-4 0 -10 1t-17.5 10.5t-15.5 26.5
q-5 26 -16.5 37.5t-24.5 11.5q-6 0 -50 -0.5t-84.5 -0.5t-39.5 0v302q5 -2 13.5 -2.5t34.5 5t50.5 20.5t56.5 52.5t58 92.5q35 81 61 135t35 67l8 13q0 2 1.5 5t6 10.5t9.5 13.5t14.5 10.5t20.5 4.5q31 0 45.5 -8.5t14.5 -33.5v-47q-24 -11 -34.5 -31.5t-9.5 -35.5l1 -15
v-47q0 -24 9 -42t21 -26t24.5 -12.5t21.5 -4.5l8 -1l89 2q3 0 9 -0.5t20 -4.5t25 -11.5t20 -25.5t9 -43v-343z" />
    <glyph glyph-name="uniE67B" unicode="&#xe67b;" 
d="M848 314q5 -13 5 -25v-319q0 -28 -20 -48t-48 -20h-546q-28 0 -48 20t-20 48v319q0 13 5 25q-22 6 -36.5 24t-14.5 42v113q0 29 20 49t48 20h264l-98 97q-6 7 -6 16.5t6.5 16t16 6.5t16.5 -6l113 -114q7 -6 7 -16q0 10 7 16l113 114q7 6 16.5 6t16 -6.5t6.5 -16t-6 -16.5
l-98 -97h264q28 0 48 -20t20 -49v-113q0 -24 -14.5 -42t-36.5 -24zM762 -53q19 0 32.5 13.5t13.5 32.5v273q0 19 -13.5 32t-32.5 13h-227v-364h227zM216 -7q0 -19 13.5 -32.5t32.5 -13.5h227v364h-227q-19 0 -32.5 -13t-13.5 -32v-273zM216 516q-19 0 -32 -13.5t-13 -31.5
v-69q0 -19 13 -32t32 -13h273v159h-273zM853 471q0 18 -13 31.5t-32 13.5h-273v-159h273q19 0 32 13t13 32v69z" />
    <glyph glyph-name="uniE67C" unicode="&#xe67c;" 
d="M930 593q-59 2 -163 40.5t-181.5 76t-73.5 37.5h-5q-11 -6 -30.5 -16t-74.5 -36t-104 -46t-106.5 -37.5t-94.5 -18.5q-2 -21 -2.5 -64.5t6.5 -110t17.5 -132t31.5 -130t48 -103.5q28 -42 96 -87.5t120 -70t92 -39.5q1 0 1.5 -0.5t3.5 -1t6 1.5q234 88 312 197
q29 44 51 110.5t32.5 131.5t16 128t5 107t-3.5 63zM680 329h-135v-63h135v-52h-135v-120h-64v120h-133v52h133v63h-133v53h108l-70 126h70q55 -102 57 -111q3 10 59 111h70l-72 -126h110v-53z" />
    <glyph glyph-name="uniE67D" unicode="&#xe67d;" 
d="M413 -19q-115 32 -184 88q-60 49 -102 116q-48 77 -61 146l-1 4v387l20 10q35 17 81 29.5t84 18t78.5 9t56.5 4t26 0.5v-73q-18 0 -49.5 -1t-103.5 -12t-120 -31v-334q14 -60 52 -121q82 -129 231 -170zM405 139q-46 13 -83.5 39.5t-58 53t-34 54t-17.5 42t-4 16.5v230
q33 16 85.5 25t75.5 10t36 1v-471zM491 558q-68 9 -87 9v44q22 0 93 -9zM404 139l-5 42q38 11 69 33t47.5 43t28.5 45t14.5 34t3.5 15l41 -15q-6 -35 -33 -78q-55 -88 -166 -119zM540 711q-71 9 -130 9v73q82 0 174 -12zM413 -19l-12 70q48 13 88.5 35t66.5 44t46.5 49
t31 47t18 41.5t8.5 28.5t2 12l75 -8q-9 -62 -51 -129q-39 -62 -97 -107q-68 -53 -176 -83zM750 770q-88 0 -150 -62t-62 -149.5t62 -150t150 -62.5t150 62.5t62 150t-62 149.5t-150 62zM726 464l-16 16l-106 104l34 34l89 -89l137 124l32 -35z" />
    <glyph glyph-name="uniE67E" unicode="&#xe67e;" 
d="M972 456q-1 2 -3 4l-127 214l-100 -218h230v0zM340 456h341l-170 240zM476 707h-241q-14 0 -28 -9l103 -225l166 234v0zM816 701q-12 6 -23 6h-247l166 -234l104 228v0zM331 421l179 -555h2l179 555h-360v0zM183 668l-125 -208l-1 -2q-1 -1 -1 -2h224l-97 212v0zM52 421
l1 -2h1q1 -1 9 -10l394 -490l-163 502h-242v0zM972 421h-244l-167 -516l405 504q4 5 6 12v0zM972 421z" />
    <glyph glyph-name="uniE67F" unicode="&#xe67f;" 
d="M839 658l-99 -60l8 -12q-135 38 -194 38q-22 0 -42 -4t-31.5 -9t-32.5 -15l-61 -29l-115 1l-106 -146l74 -68q-9 -25 8 -44q16 -19 41 -14q-17 -32 2 -54q20 -23 53 -11q-7 -25 8 -42q16 -19 42 -14l4 1q-11 -28 6 -47q12 -14 30 -15t31 10l16 14l16 -29q6 -11 18 -15
t25 2q12 7 15.5 19.5t-2.5 23.5l-30 55q1 17 -13 31l12 8q33 -64 45 -87q6 -11 18.5 -15t24.5 2q12 7 16 20t-3 23l-49 92l14 9l55 -103q6 -12 18.5 -16t24.5 3q12 6 15.5 19t-2.5 23l-57 107l15 9q37 -72 51 -98q6 -11 18 -15t25 2q11 6 15 18.5t-2 24.5l-37 70
q29 18 65 73l50 31l15 -25l107 56zM339 253q-7 -6 -16.5 -5.5t-15.5 7.5q-6 6 -4 19t13 20q10 6 88 75q7 6 16.5 5.5t15.5 -7.5t5.5 -16.5t-7.5 -15.5zM400 200q-7 -6 -16.5 -5.5t-15.5 7.5q-14 16 0 31q1 0 18 15t35 30l18 16q7 6 16.5 5.5t15.5 -7.5t5.5 -16.5t-7.5 -15.5
zM495 177l-43 -37q-7 -6 -16.5 -5.5t-15.5 7.5t-5.5 16.5t7.5 15.5l43 38q16 13 31 -2q7 -5 7 -15t-8 -18zM779 409q-4 -3 -4 -4q-32 -49 -59 -63q-14 20 -27 36.5t-26 32t-22 26.5t-22.5 24.5t-20 20.5t-20.5 20t-18.5 17.5t-20.5 18.5t-20 17l-147 -68q-8 -4 -17 -1
t-13 11.5t-1 17.5t12 13l142 66q26 10 59 10q49 0 210 -45l69 -117zM47 491l122 178l90 -72l-119 -166zM263.5 322.5q-6.5 7.5 -5.5 17t7 15.5l78 67q7 6 16.5 5.5t15.5 -7.5t5.5 -16.5t-7.5 -15.5l-78 -68q-6 -5 -15.5 -5t-16 7.5z" />
    <glyph glyph-name="uniE680" unicode="&#xe680;" 
d="M530 872q-62 0 -151 -18.5t-162 -37t-95 -18.5v-501q3 -24 11.5 -50t35.5 -67.5t68 -77.5t117.5 -73.5t175.5 -61.5q72 17 132 41.5t100 50t72 55t50 54.5t30 52t16.5 44t6.5 33v501q-22 0 -94.5 18.5t-161.5 37t-151 18.5v0zM887 312q-2 -21 -9.5 -44t-31 -59.5
t-59.5 -68t-103 -64.5t-154 -54q-87 21 -154 54t-103 64.5t-60 68t-31.5 59.5t-9.5 44v440q19 0 83 16.5t142 32.5t133 16t133 -16t141.5 -32.5t83.5 -16.5l-1 -440v0zM336 614h167q-2 26 26 26q29 0 29 -26h163q23 -2 24 -26q-1 -24 -24 -24h-163v-17h113q37 0 36 -35v-193
h16q26 -1 28 -26q0 -24 -26 -24h-78q19 -5 32 -9q31 -9 48 -13q24 -6 17 -31q-11 -23 -36 -15q-20 5 -52 15q-59 18 -77 22q-28 7 -17 31h-71q13 -22 -13 -33q-61 -26 -140 -37q-26 0 -30 24q2 22 28 24q44 2 98 22h-102q-22 0 -22 24q2 25 24 26h20v191q0 36 34 37h115v17
h-167q-21 0 -23 24q2 24 23 26zM406 483h249v13q-2 3 -6 5h-237q-6 -2 -6 -5v-13zM655 447h-249v-18h249v18zM406 394v-19h249v19h-249zM406 340v-21h249v21h-249z" />
    <glyph glyph-name="uniE681" unicode="&#xe681;" 
d="M341 829v-34h273l-136 -409h34l171 443h-342zM307 455q-23 0 -31 -21.5t-3.5 -47t5.5 -47t-5 -21.5q-136 0 -136 307q0 30 -21.5 47.5t-47 17.5t-47 -17t-21.5 -48v-273q0 -30 28 -66t68.5 -68.5t80.5 -63.5t68 -60t28 -48v-102h137q34 174 34 272.5t-43 168.5t-94 70z
M375 -22h-68v68q0 19 -28 48t-68 60.5t-80.5 64.5t-68.5 68.5t-28 64.5v273q0 24 17 33t34 -0.5t17 -32.5q0 -171 46.5 -256t124.5 -85q24 0 29.5 21.5t-0.5 47t-6 47t11 21.5q47 0 75 -60.5t28 -144.5q0 -27 -2 -55t-5 -51t-6.5 -44t-7.5 -37t-7 -27.5t-5 -17.5zM1024 625
q0 25 -14 41.5t-34 20.5t-40 0t-34.5 -21t-14.5 -41q0 -307 -136 -307q-6 0 -5 21.5t5.5 47t-3.5 47t-31 21.5q-51 0 -94 -70t-43 -169t34 -272h137v102q0 19 28 48t68 60t80.5 63.5t68.5 68.5t28 66v68v87v79v39zM990 352q0 -29 -28 -64.5t-68.5 -68.5t-80.5 -64.5
t-68 -60.5t-28 -48v-68h-69q-3 11 -9 32.5t-15.5 84t-9.5 121.5q0 84 28 144.5t75 60.5q11 0 11 -21.5t-6.5 -47t-0.5 -47t30 -21.5q78 0 124.5 85t46.5 256q0 23 17 32.5t34 0.5t17 -33v-273z" />
    <glyph glyph-name="uniE682" unicode="&#xe682;" 
d="M777 120h2l1 1h3q2 0 5 -1h-11zM235 120q-5 -3 -10 -12q-5 -10 -9 -24q-3 -14 -5 -31q-3 -18 -3 -38q0 -12 2 -24q1 -12 2 -23h57q4 21 4 47q0 20 -2 38t-6 31q-3 14 -8 23.5t-11 12.5h-11zM777 120q-5 -3 -10 -12t-9 -24q-3 -14 -5 -31q-2 -18 -2 -38q0 -14 1 -24
q1 -15 2 -23h57q2 11 3 23t1 24q0 20 -2 38t-6 31q-3 14 -8 24q-5 9 -11 12h-11zM246 120q19 -1 36.5 -9.5t30 -22.5t19.5 -33t7 -39q0 -26 -11 -48h367q-11 22 -11 48q0 20 7 39q8 18 20 33q13 14 30 22q17 9 36 10h-531zM540 24l-10 -15q-2 -3 -7 -10t-5 -8q-1 0 -2 -1
t-4 -1t-4 1t-2 1q-2 3 -6 8l-6 10l-10 15q-4 6 -1 10t11 4h36q8 0 11 -4t-1 -10zM788 120q19 -1 36 -10q17 -8 30 -22.5t20 -32.5q7 -19 7 -39q0 -13 -3 -25q-2 -12 -8 -23h87v116v72v3q0 14 -2 34q-2 19 -6 35q-4 18 -12 32q-7 14 -19 21q-13 8 -26 6t-23 -8t-17.5 -13.5
t-9.5 -10.5q-7 -8 -20 -24t-17 -20q-18 -22 -41 -41t-50.5 -30.5t-62.5 -11.5h-22h-117h-1h-117h-22q-35 0 -62 12q-28 12 -50 30q-23 18 -42 41q-22 25 -37 44l-5 6l-9 9q-6 5 -13 9q-7 5 -15 7q-7 2 -17 1q-8 -1 -17 -6q-11 -7 -19 -21.5t-12 -31.5t-6 -35q-1 -19 -1 -34
q-1 -1 -1 -3v-72v-116h87q-5 11 -8 23t-3 25q0 20 7 39q7 18 20 33q13 14 30 22.5t36 9.5h553zM235 120h2l1 1h3h3q1 0 2 -1h-11zM928 320q-13 0 -22.5 9.5t-9.5 22.5v352q0 13 -9.5 22.5t-22.5 9.5h-704q-13 0 -22.5 -9.5t-9.5 -22.5v-352q0 -13 -9.5 -22.5t-22.5 -9.5
t-22.5 9.5t-9.5 22.5v352q0 40 28 68t68 28h704q40 0 68 -28t28 -68v-352q0 -13 -9.5 -22.5t-22.5 -9.5zM512 416q-93 0 -158.5 65.5t-65.5 158.5q0 13 9.5 22.5t22.5 9.5t22.5 -9.5t9.5 -22.5q0 -66 47 -113t113 -47t113 47t47 113q0 13 9.5 22.5t22.5 9.5t22.5 -9.5
t9.5 -22.5q0 -93 -65.5 -158.5t-158.5 -65.5z" />
    <glyph glyph-name="uniE683" unicode="&#xe683;" horiz-adv-x="1025" 
d="M893 256q0 -39 -21 -81t-62.5 -80t-96.5 -68.5t-129 -48.5t-154.5 -18t-157 19.5t-137.5 54.5t-98 88t-37 116q0 67 39.5 143t113.5 151q96 98 194.5 137t140.5 -4q38 -37 12 -122q-2 -8 -0.5 -11.5t5.5 -4t8.5 0.5t7.5 2l3 1q80 34 141 34t87 -35q26 -37 0 -104
q-1 -8 -2.5 -12t2.5 -7t7 -4t10 -4q32 -10 58.5 -27t46 -47.5t19.5 -68.5zM717 259q-5 56 -51 99t-119 63.5t-157 12.5q-127 -14 -211 -83t-76 -154q6 -56 51.5 -99t119 -63.5t156.5 -12.5q128 13 211.5 82.5t75.5 154.5zM539 165q-26 -59 -90.5 -87t-128.5 -7
q-61 20 -84 74t4 109q27 54 86.5 81t120.5 11q63 -17 90 -69.5t2 -111.5zM386 157q12 20 6 40.5t-26 29.5q-19 8 -41.5 0.5t-34.5 -27.5q-12 -19 -7 -39.5t24.5 -29.5t42.5 -1.5t36 27.5zM439 228q5 7 2.5 15t-10.5 11t-16 0t-12 -11q-10 -18 7 -26q8 -3 16.5 0t12.5 11z
M954 715q50 -56 64.5 -129.5t-7.5 -140.5q-6 -16 -20 -23.5t-29.5 -2.5t-23 19.5t-2.5 30.5q16 48 5.5 100.5t-45.5 92.5q-36 40 -85 55.5t-99 4.5q-16 -3 -29.5 6t-17 25.5t5.5 30t25 16.5q70 16 139 -6t119 -79zM793 658q34 -10 58 -37.5t31 -63.5t-4 -69
q-5 -13 -17 -19.5t-25 -2.5q-13 5 -19.5 17.5t-2.5 25.5q11 37 -14 65t-61 21q-14 -3 -26 4.5t-14 21.5q-3 14 4.5 26t21.5 15q34 7 68 -4zM793 658z" />
    <glyph glyph-name="uniE684" unicode="&#xe684;" 
d="M692 548q15 0 35 -2q-23 109 -127 181t-237 72q-97 0 -180 -40.5t-131.5 -111t-48.5 -155.5q0 -142 144 -243l-36 -108l126 63q6 -2 25 -5.5t27 -5t22.5 -4t26.5 -3t25 -0.5q16 0 34 1q-11 38 -11 76q0 118 89 201.5t217 83.5zM498 646q21 0 33.5 -12.5t12.5 -33
t-12.5 -32.5t-33.5 -12t-37.5 12.5t-16.5 32t16.5 32.5t37.5 13zM246 556q-21 0 -37.5 12.5t-16.5 32t16.5 32.5t37.5 13q20 0 32.5 -12.5t12.5 -33t-12.5 -32.5t-32.5 -12zM246 556zM1021 267q0 70 -42.5 131t-113 95.5t-150.5 34.5q-128 0 -217.5 -76.5t-89.5 -184.5
q0 -109 89.5 -185.5t217.5 -76.5q36 0 108 18l99 -54l-27 90q126 95 126 208zM616 312q-14 0 -25 11t-11 25t11 25t25 11q19 0 32 -11t13 -25t-13 -25t-32 -11zM814 312q-14 0 -25 11t-11 25t11 25t25 11q19 0 32 -11t13 -25t-13 -25t-32 -11zM814 312z" />
    <glyph glyph-name="uniE685" unicode="&#xe685;" horiz-adv-x="1049" 
d="M600 802v-358h358v358h-358zM600 -16h358v358h-358v-358zM140 444h358v358h-358v-358zM140 -16h358v358h-358v-358zM140 -16z" />
    <glyph glyph-name="uniE686" unicode="&#xe686;" 
d="M412 895q-18 -24 -31 -43q-11 -17 -22 -32t-13 -18q-10 -18 -2 -28q4 -4 9 -9.5t12 -10.5q6 -5 9 -13t0 -15t-7 -15.5t-8 -15.5q-9 -17 5 -36q7 -11 25 -39l36 -56q8 -15 23 -37.5t29 -42.5q17 -25 35 -51l30 44q12 18 25 37t21 31q7 12 18 31l25 35q11 18 20 32.5
t12 19.5q12 19 4 32q-3 6 -6 11.5t-7 13.5q-7 16 -2 25l12 11q7 8 15 19t2.5 20t-15.5 23q-5 6 -13.5 19t-17.5 26q-11 16 -23 32q5 0 9 -1q8 -2 19 -3q4 -2 12.5 -7t18 -11.5t19 -12.5t17.5 -9q15 -6 28.5 -9t34 -8.5t36 -19.5t21.5 -45q3 -15 9 -40.5t15 -56.5t18 -64.5
t18.5 -66.5t25 -72t31.5 -74.5t29.5 -62t17.5 -33.5q8 -15 11.5 -26.5t-2.5 -18.5q-5 -8 -19 -16t-25 -13t-26 -3.5t-25 18.5q-5 8 -16 27.5t-24 45t-28 54.5t-27 56q-14 27 -24.5 62t-18.5 64q-11 35 -18 71l-6 -56q-2 -26 -4.5 -56.5t-4.5 -60.5q-2 -31 0.5 -76t7 -89
t9.5 -79.5t8 -48.5q5 -23 5 -37t-26 -24q-12 -5 -30 -9.5t-38 -7.5t-39 -6t-32 -4q-28 -2 -35 8.5t-9 21.5q-2 6 -5 26t-7 44.5t-8 48t-6 36t-5 29.5t-5 33q-3 18 -6 39l-6 -34q-3 -14 -6 -31.5t-5 -34.5t-6 -40l-8 -46q-4 -23 -7 -42.5t-5 -28.5t-3.5 -15t-5.5 -9.5
t-12 -4.5t-22 0t-33 4t-39 7t-38.5 8.5t-30.5 8.5t-18 10.5t-7.5 15t0.5 17.5t5.5 18.5t8 43t9 75.5t7 85t1.5 72q-2 28 -4.5 62t-4.5 63q-3 34 -6 70q-9 -36 -20 -70q-8 -29 -17.5 -62.5t-18 -59t-24.5 -58t-32.5 -63t-29.5 -53t-16 -27.5q-6 -9 -19.5 -12.5t-25.5 1.5
q-13 5 -23.5 11.5t-20.5 15t-8.5 19t8.5 24.5q4 8 18.5 39t31.5 68t31 71t19 46q5 13 13 43t17 65t17.5 67t12.5 48q8 33 14.5 51t20.5 30t39 17t49.5 13t37 19.5t26.5 18.5q19 8 27 8q4 0 8 -1zM416 862q6 -31 13 -62q5 -27 12.5 -56.5t13.5 -54t15 -58.5t18 -64
q12 -36 23 -73q13 46 25 87q10 35 19 69t13 50q4 14 10 41l12 54q6 30 14 64q9 -12 17 -23l15 -21q7 -10 11 -15q8 -11 5.5 -15.5t-7.5 -9.5l-16 -16q-4 -5 -8 -11.5t0 -15.5l8 -13q2 -5 7 -17q6 -14 4 -21.5t-6 -14.5q-3 -4 -8.5 -13t-12 -19t-13.5 -21t-12 -19t-18 -28
l-26 -40q-16 -25 -33 -51q-15 23 -28 45q-11 17 -22 35.5t-17.5 27.5t-13.5 21t-14.5 23.5t-14.5 22.5t-11 17q-10 17 -6 30q2 5 6.5 14.5t10 20t1.5 17.5t-7 10q-3 4 -6 7t-10 11q-7 7 -6.5 12t5.5 15q2 3 7.5 12t12.5 20q9 11 18 26z" />
    <glyph glyph-name="uniE687" unicode="&#xe687;" 
d="M971 143l-2 18l-3 17l-3 9l-2 9l-3 9l-4 10l-3 10l-4 9l-8 16l-6 14l-7 13l-5 11l-7 11l-5 9l-10 15l-12 19l-3 5l-1 2v1l2 7l3 6l2 11l2 6v6v5v5v6l-1 4l-2 10l-2 9l-3 8l-3 8l-4 7l-3 7l-3 6l-6 9l-2 3v2l-3 18l-1 11l-2 14l-3 15l-4 17l-3 9l-2 8l-3 9l-3 10l-3 9
l-4 10l-8 19l-5 9l-6 10l-5 9l-6 10l-7 10l-7 8l-8 10l-8 8l-8 8l-9 9l-5 3l-5 4l-11 7l-12 8l-12 7l-13 7l-13 6l-13 6l-14 4l-15 4l-13 4l-15 3l-13 4l-15 1l-14 2l-15 2h-15h-14h-14l-14 -1l-14 -2l-14 -2l-13 -2l-14 -3l-13 -3l-13 -4l-12 -4l-12 -4l-12 -6l-12 -5
l-10 -6l-10 -6l-10 -7l-10 -8l-8 -7l-12 -12l-10 -10l-10 -11l-9 -11l-9 -11l-7 -10l-7 -11l-4 -5l-3 -6l-7 -10l-5 -10l-5 -10l-4 -10l-4 -9l-3 -9l-3 -9l-4 -8l-4 -16l-3 -15l-1 -12l-2 -11v-8v-7v-6l-3 -3l-3 -4l-2 -4l-2 -4l-2 -9l-3 -9v-7l-1 -6v-6l-6 -8l-4 -9l-3 -8
l-2 -7l-2 -7l-2 -6v-6v-6v-5l1 -4l2 -7l1 -6l-3 -3l-9 -6l-12 -11l-7 -7l-7 -6l-5 -5l-4 -5l-9 -9l-8 -10l-7 -8l-8 -11l-7 -11l-7 -12l-7 -11l-5 -11l-5 -11l-4 -10l-4 -11l-3 -11l-3 -11l-3 -10l-2 -10l-1 -9l-2 -10l-1 -18v-17v-7l1 -7l2 -13l1 -6l2 -5l2 -6l1 -3l3 -7
l2 -2l2 -3h1h1h1h7l7 2l7 3l6 4l6 4l5 5l6 5l5 6l5 6l4 6l4 4l2 6l5 8l2 4l1 2v3l1 2h1l2 1h1v-1h1h1l3 -12l2 -10l4 -10l4 -9l4 -9l5 -8l4 -9l4 -7l5 -7l3 -6l10 -12l9 -11l8 -8l8 -7l7 -6l11 -10l4 -2l2 -2v-1l-1 -1h-1h-2l-8 -1l-7 -1l-6 -1l-7 -1l-5 -2l-6 -2l-5 -2
l-4 -3l-5 -1l-3 -3l-3 -2l-4 -3l-4 -5l-2 -3l-2 -2l-3 -6l-2 -5l-1 -5l-1 -4v-6v-3l-1 -4v-4l-1 -4v-3l1 -4l1 -4l2 -7l2 -3l2 -3l2 -3l3 -3l3 -3l2 -3l7 -5l8 -4l8 -5l9 -3l9 -4l11 -2l10 -4l11 -2l12 -2l11 -2l12 -1l24 -3h24h23h10h10h11l9 1l9 1l8 1l13 2l9 3l9 2l17 7
l8 3l7 3l12 7l10 6l8 5l6 5l9 -1l7 -1l14 -1h6h6l4 -1l4 -1l7 -3l8 -2l14 -5l15 -5l14 -4l14 -3l15 -4l15 -2l15 -2l14 -2l14 -1l15 -1h13h14h13l13 1l13 1l12 2l11 3l11 2l11 3l5 1l5 2l9 3l8 4l8 4l8 4l6 5l3 3l3 4l4 4l4 6l1 3l1 3l2 3l1 3v4l1 3l-1 5l-1 4l-2 5l-1 4
l-3 5l-3 5l-3 3l-4 4l-9 7l-10 8l-10 5l-10 6l-23 12l-6 3l-2 2l-1 1l12 11l5 6l4 5l8 12l7 11l6 11l6 10l8 20l7 16l4 12l2 4l2 3l2 2h1h1l6 -12l5 -12l4 -7l4 -5l4 -7l5 -7l4 -5l3 -2l2 -3l2 -1l3 -2l4 -2l3 -1h2h2l2 1l4 1l3 2l3 2l3 3l3 4l2 3l3 5l2 3l2 6l2 4l3 11
l2 12l2 14l1 8v6v7v9z" />
    <glyph glyph-name="uniE688" unicode="&#xe688;" 
d="M674 621h17q1 0 2.5 -0.5t2.5 -0.5q38 -6 51 -38q10 -23 3.5 -49.5t-26.5 -45.5q-5 -4 -11 -8.5t-13 -9.5t-11 -8h144v-148h-27v-9v-316v-9h-588v5v4v316v9h-27v148h147q-10 5 -11 6q-54 31 -56 85q0 27 13.5 44.5t39.5 22.5q5 2 9 2h17h2q42 -5 70 -45q7 -10 19 -30
t18 -28q14 -21 25 -33q12 -11 28 -11t28 11q11 12 18 22t18.5 29.5t17.5 29.5q23 34 49 46q3 1 31 9zM245 313v-307h186v307h-186zM593 313v-307h186v307h-186zM565 7v426h-106v-426h106zM431 433h-213v-92h213v92zM806 433h-213v-92h213v92zM455 474q-19 30 -41 66
q-9 15 -16 23q-25 34 -63 31q-35 -3 -36 -36q-1 -16 5 -31q13 -30 55 -45q14 -5 28.5 -7t38.5 -1.5t29 0.5zM568 474h60q30 2 57 16q38 23 41 61q2 34 -26 41q-15 3 -30 1q-26 -3 -46 -31q-11 -17 -31.5 -50t-24.5 -38z" />
    <glyph glyph-name="uniE689" unicode="&#xe689;" 
d="M512 -212q-139 0 -257 68.5t-186.5 186.5t-68.5 257t68.5 257t186.5 186.5t257 68.5t257 -68.5t186.5 -186.5t68.5 -257t-68.5 -257t-186.5 -186.5t-257 -68.5zM512 755q-93 0 -177 -36t-145 -97t-97 -145t-36 -177t36 -177t97 -145t145 -97t177 -36t177 36t145 97
t97 145t36 177t-36 177t-97 145t-145 97t-177 36zM274 300l40 40l141 -141l282 282l40 -40l-322 -322z" />
    <glyph glyph-name="uniE68A" unicode="&#xe68a;" 
d="M879 573h-94q-6 101 -83.5 170t-180.5 69q-105 0 -180.5 -69t-75.5 -170h-120l-102 -785h938zM520.5 744q75.5 0 128.5 -49.5t59 -121.5h-375q6 72 59 121.5t128.5 49.5zM307 326q-20 0 -35.5 12t-15.5 30q0 20 13 31.5t38 11.5q19 0 31 -12t12 -31t-12 -30.5t-31 -11.5z
M725.5 326q-19.5 0 -31 11.5t-11.5 30.5q0 20 12 35.5t30 15.5q20 0 36 -12t16 -30q0 -19 -16 -35t-35.5 -16z" />
    <glyph glyph-name="uniE68B" unicode="&#xe68b;" 
d="M924 78q-3 1 -13 8.5t-17 6.5q-22 -3 -28.5 7t-5.5 33q1 20 0.5 86.5t0.5 86.5q0 22 -10.5 32t-32.5 10h-122q-96 0 -122 -1q-19 -1 -25.5 6t-3.5 24v1v2q0 9 -2 30t-1 35t8 23q6 8 19.5 9.5t33.5 -1t29 -2.5q39 1 39 37q1 17 1 89v90q0 7 -2.5 12.5t-8 14t-7.5 10.5
h-282q-18 -21 -18 -53q1 -28 0.5 -76.5t0.5 -77.5q0 -27 9 -36t36 -10h4h3q8 -1 26.5 1t29.5 1.5t13 -7.5q4 -12 5.5 -29t1.5 -25t-1.5 -33t-1.5 -27q0 -6 -3.5 -7.5t-11.5 -0.5t-9 1q-34 0 -241 -1q-30 0 -39.5 -9t-9.5 -38q-1 -137 0 -183q0 -13 -4 -18.5t-17 -4.5
q-15 3 -43 -16v-154l10 -10l9 -9h187q16 20 16 49q-1 17 -1 48v48q0 26 -9 34.5t-35 9.5q-37 2 -43.5 8.5t-6.5 42.5v119q0 12 4 16t16 4q103 -1 215 0q10 0 14 -4t3 -14q-1 -78 0 -151q1 -11 -3 -15.5t-16 -5.5q-22 -1 -32 -1.5t-21 -4.5t-13.5 -7t-6 -15t-3.5 -22v-33v-54
q-2 -31 18 -52h218q20 20 18 52v45v44q0 29 -9.5 38.5t-37.5 9.5q-36 1 -42 7.5t-6 42.5v118q-1 13 3.5 17.5t17.5 4.5q93 -1 211 0q12 0 16.5 -4t3.5 -16q-1 -78 0 -151q1 -11 -4 -14.5t-17 -4.5q-55 -2 -64 -12t-9 -67v-58q-2 -31 16 -52h186q8 7 19 19v154zM924 78z" />
    <glyph glyph-name="uniE68C" unicode="&#xe68c;" horiz-adv-x="1025" 
d="M226 812q-94 0 -160 -66t-66 -160t66 -160t160 -66h226v226q0 94 -66 160t-160 66zM380 432h-154q-64 0 -109 45t-45 109t45 109t109 45t109 -45t45 -109v-154zM1025 586q0 94 -66.5 160t-160 66t-159.5 -66t-66 -160v-226h226q93 0 159.5 66t66.5 160zM645 432v154
q0 64 45 109t108.5 45t108.5 -45t45 -109t-45 -109t-108 -45h-154zM798.5 -212q93.5 0 160 66t66.5 160t-66.5 160t-159.5 66h-226v-226q0 -94 66 -160t159.5 -66zM645 168h154q63 0 108 -45t45 -109t-45 -109t-108.5 -45t-108.5 45t-45 109v154zM0 14q0 -94 66 -160
t160 -66t160 66t66 160v226h-226q-94 0 -160 -66t-66 -160zM380 168v-154q0 -64 -45 -109t-109 -45t-109 45t-45 109t45 109t109 45h154zM207 794h13v-8h-13v8z" />
    <glyph glyph-name="uniE68D" unicode="&#xe68d;" horiz-adv-x="1636" 
d="M1635 783q-11 0 -20 -16q-8 -14 -17 -15q-10 -1 -25 13q-19 17 -32.5 15.5t-28.5 -16.5q-11 -12 -22 -14q-8 -2 -22 11q-20 20 -38 18q-16 -2 -29 -19q-8 -10 -18 -11q-12 0 -22 11q-12 13 -25 15q-23 5 -48 -19h-16v15q0 16 -11.5 27t-27.5 11l-41 -1q-14 0 -25 -10
q-6 18 -21 29.5t-35 11.5l-60 -1q-6 0 -12 -1v19q0 14 -4 23q-4 10 -15 14q-6 3 -67 3q-82 0 -123 -2q-22 0 -50 -7q-26 -7 -48 -11q-41 -7 -311 -13q-60 -2 -75 -2q-57 -2 -93 24v1q-11 7 -27 5q-14 -1 -28 -10q-15 -8 -29 -30q-15 -23 -17 -41q-1 -11 4.5 -20.5
t10.5 -12.5t7 -3l10 -4l2 5q10 -15 12 -33.5t-5.5 -39.5t-13.5 -34.5t-17 -33.5q-45 -83 -84 -201q-28 -85 -54 -292h-1l-4 -2q-17 -6 -18 -111q0 -19 -1 -22q-1 -13 2 -20t11 -11q2 -2 40 -19q112 -49 130 -60q5 -4 14 -10q16 -10 23 -12.5t14 -0.5q7 3 14 15q7 11 13 24
q4 10 1 21q-3 13 -17 29q-11 13 -15 34q-4 22 1 39q7 24 39 115l15 3l3 1l3 3l11 13l5 6q40 -3 65 -3h1h10h1h1q2 0 6 1h2q2 0 4 1h1h1q2 1 2.5 1.5t0.5 3.5v1v5v1v1v6v1v10v23v2v1v11v11v3v4v2v4v11v2v6v6v1v12v1v14v3v11v3v9q0 1 1 3v9q1 6 3 11q1 1 1 3q1 0 1 1q2 3 3 6
q2 3 5 6q0 1 1 1.5l1 0.5l2 2l1 1l5 5h1q3 2 8 4q0 1 3 2t5 2q3 0 5 1h1h5l2 1h2l2 1v1h1h1v1q1 1 2 1v1q1 1 1 2v1l1 2l1 5l93 -12l23 -3v0l7 30h2q15 -1 33.5 -1.5t59 0t64.5 2.5q34 3 74 16q43 15 71 34q17 12 75 61q30 24 40 33q33 27 33 64l2 -1h1h7h-7h8v0l61 1
q10 0 19 3q28 10 35 39q11 -10 26 -9h41q16 0 27 11.5t11 27.5v22h23l3 3q18 20 34 17q6 -1 13 -10q17 -18 38 -17q19 1 32 19q8 10 17 11q8 1 22 -13q22 -20 40 -16q16 4 31 20q9 10 16 11q6 0 18 -11q22 -19 39 -18q20 2 33 25q3 6 4 6zM1015 656q1 -1 3 -2q-2 1 -3 2z
M24 -7l-2 1q-1 2 -1 10q1 4 1 24q1 90 4 91l4 2q80 29 79 76q0 40 11 84q15 62 49 127q19 37 45 81q10 16 14 22.5t7 15t2 13.5t-5 11q-3 4 -7 9q-24 30 -20 68q3 22 9.5 38t13.5 24t21 21l2 2q7 8 29 24q16 12 24 18.5t16.5 17t9.5 20.5q2 26 -22 33q-19 5 -63 -4
q-41 -9 -56 -16q-9 -4 -13 -8q-4 4 -3 10q2 12 14 31q11 18 22 24q10 6 19 7t12 -1l1 -1q41 -31 106 -28q15 0 74 1q272 6 315 14q23 4 49 10.5t46 7.5q43 2 122 2q57 0 60 -2q2 0 3 -3q2 -4 2 -13v-30q-24 -18 -24 -47l1 -82q1 -17 10 -31q-131 -138 -189 -152
q-24 -6 -69 -6.5t-115 2t-106 2.5q-12 0 -33 6t-30 6q-17 1 -43.5 5t-37.5 4q-89 0 -112 -109q-28 -131 -99 -404q-10 -38 -26 -83q-31 15 -83 38q-37 16 -38 17zM439 790h360v-14h-360v14zM439 764h360v-15h-360v15zM439 737h360v-14h-360v14zM439 711h360v-14h-360v14z
M439 685h360v-15h-360v15z" />
    <glyph glyph-name="uniE68E" unicode="&#xe68e;" 
d="M437 100h-213v-71h212v2q0 5 1 11v58zM332 454q-40 0 -70 -30t-36 -76h210q-6 46 -35.5 76t-68.5 30zM374 738h-88q-15 0 -25 10.5t-10 25t10 25t25 10.5h88q15 0 25 -10.5t10 -25t-10 -25t-25 -10.5zM507 -6q0 -15 -11 -25.5t-27 -10.5h-276q-16 0 -27.5 10.5
t-11.5 25.5v37v34v266q0 58 29 106.5t77 71.5v194h142v-193q48 -23 77 -71.5t29 -107.5v-300h-1v-37zM827 348h-248v-283h248v283zM862 31v-37q0 -15 -10 -25.5t-25 -10.5h-248q-15 0 -25 10.5t-10 25.5v37v34v266q0 62 29.5 112t76.5 70v228q-19 9 -19 33q0 14 9 24.5
t22 10.5h23h36h20q13 0 22.5 -10.5t9.5 -24.5q0 -21 -17 -31v-229q47 -21 76.5 -71t29.5 -112v-300z" />
    <glyph glyph-name="uniE68F" unicode="&#xe68f;" 
d="M935 464q-15 21 -33 42q-1 1 -1 2l-11 12q-22 25 -41 43q-33 30 -53 30h-154q-6 0 -12 -2v66q0 24 -17.5 41t-42.5 17h-451q-25 0 -42.5 -17t-17.5 -41v-454q0 -24 17.5 -41t42.5 -17h69q8 -37 39.5 -62t71.5 -25t71.5 25t40.5 62h159q20 0 36 12q16 -12 36 -12h15
q9 -37 40.5 -62t71.5 -25t71.5 25t39.5 62h33q25 0 42.5 17t17.5 41v184q0 17 -19 48q-8 13 -19 29zM299 104q-27 0 -46.5 19t-19.5 45.5t19.5 45.5t47 19t47 -19t19.5 -45.5t-19.5 -45.5t-47.5 -19zM583 535v-332q0 -5 -4 -8.5t-9 -3.5h-159q-8 37 -38.5 61.5t-69.5 25.5
h-1v0v0v0v0v0h-1v0v0v0v0h-1v0v0v0v0v0h-1v0v0v0h-1v0v0v0h-1v0v0v0v0v0h-1v0v0q-40 -1 -70 -25.5t-38 -61.5h-69q-5 0 -9 3.5t-4 8.5v454q0 5 4 8.5t9 3.5h451q5 0 9 -3.5t4 -8.5v-122zM769 104q-28 0 -47.5 19t-19.5 45.5t19.5 45.5t47 19t47.5 -19t20 -45.5t-20 -45.5
t-47 -19zM926 203q0 -5 -4 -8.5t-9 -3.5h-33q-8 36 -36.5 60t-66.5 27v0v0v0h-1v0h-1v0v0v0h-1v0v0v0v0h-1v0v0v0v0v0v0v0h-1v0v0v0v0v0v0v0h-1v0v0v0h-1v0v0v0v0v0h-1v0v0v0v0h-1v0v0v0h-1v0v0h-1v0v0v0v0v0v0v0v0v0v0h-1v0h-1v0v0v0h-1h-1v0h-1v0v0v0v0v0v0h-1v0v0h-1
q-37 -3 -65.5 -27.5t-36.5 -59.5h-14q-6 0 -9.5 3.5t-3.5 8.5v332q0 5 3.5 8.5t9.5 3.5h151q8 -4 26 -21q1 0 2 -1l2 -2h-73q-25 0 -42.5 -17t-17.5 -41v-70q0 -24 17.5 -41t42.5 -17h175v-134v0zM926 383h-175q-5 0 -9 3.5t-4 8.5v70q0 5 4 8.5t9 3.5h115l16 -20
q14 -19 25 -35l3 2l-3 -2l7 4l-7 -4l3 -5q15 -23 16 -31v-3v0zM486 562q-27 0 -54.5 10t-36.5 16.5t-14 10.5q-3 2 -6.5 1.5t-5.5 -3.5q-15 -18 -46.5 -26t-59.5 -8q-3 0 -5.5 -2.5t-2.5 -6.5v-101q0 -35 41 -83.5t79 -48.5q40 0 80 48t40 81v103q0 9 -9 9zM477 450
q0 -26 -35 -68.5t-67 -42.5q-30 0 -66.5 43t-36.5 71v92q72 4 105 35q45 -33 100 -35v-95zM330 399q0 -3 -2 -4.5t-4 -1.5q-6 0 -6 6v73q-1 -3 -2.5 -5t-2.5 -4q-5 -8 -11 -5q-2 1 -2 4t3 8q9 14 15 28t10 30q1 5 2.5 7t5 1.5t4 -3t0.5 -6.5q-2 -8 -4.5 -15.5t-5.5 -15.5
v-97zM395 400q0 -7 -6 -7t-6 7v45q-7 -10 -16 -18.5t-22 -16.5q-5 -3 -7.5 -3t-4.5 2q-1 3 0 5.5t7 6.5q5 3 10 7t10 8.5t9.5 9.5t8.5 11h-38q-3 0 -4.5 1.5t-1.5 3.5q0 3 1.5 4.5t4.5 1.5h43v13h-22q-7 0 -10 3.5t-3 10.5v23q0 7 3 10t10 3h57q6 0 9 -3t3 -10v-23
q0 -7 -3 -10.5t-9 -3.5h-23v-13h42q7 0 7 -6q0 -2 -2 -3.5t-5 -1.5h-39q5 -7 10.5 -12.5t11 -10.5t10.5 -9t9 -7q5 -3 6 -6t0 -5q-2 -3 -4.5 -2.5t-7.5 2.5q-13 9 -22 18t-16 18v-43zM418 517q0 3 -3 3h-52q-3 0 -3 -3v-21q0 -3 3 -3h52q3 0 3 3v21z" />
    <glyph glyph-name="uniE690" unicode="&#xe690;" 
d="M320 319l256 -386l256 386h-125v385h-258v-385h-129z" />
    <glyph glyph-name="uniE691" unicode="&#xe691;" 
d="M987 496q-37 79 -111 139q-56 46 -141 77q-50 19 -151 44l-2 1q-9 2 -26 6q-51 13 -75 21.5t-53 25.5q-6 4 -20 13q-54 34 -79.5 47.5t-40 13.5t-23 -9.5t-7.5 -24.5q0 -7 3 -15q3 -9 12 -29q12 -27 16 -40q18 -58 -28 -93q-91 -71 -143 -153q-73 -113 -67 -237
q5 -88 43 -163q36 -74 100 -129q64 -54 146 -83q84 -29 178 -30q20 0 41 2q204 14 331 136q62 59 95 138q34 79 37 172q2 91 -35 170zM971 327q-4 -166 -117 -274q-113 -110 -299 -122q-18 -2 -37 -2q-173 1 -291 101q-56 48 -88 112q-33 67 -37 143q-6 108 58 207
q48 75 133 140q72 57 45 149q-4 14 -13 33q18 -10 56 -34q14 -9 20 -13q33 -20 61 -30t82 -23q16 -4 25 -7h2q65 -17 100.5 -27t86.5 -33t86 -51q130 -106 127 -269zM504 450q-21 -3 -32.5 -33.5t-11.5 -73.5q95 -20 100 -21q7 -1 2 -6l-80 -87q19 -50 59 -44
q28 4 43.5 37.5t7.5 87.5q-9 63 -35.5 103.5t-52.5 36.5zM774 470q-20 -4 -32 -31t-11 -66q81 -15 86 -16t1 -5l-73 -71q9 -34 22 -51.5t28 -13.5q24 6 39.5 41.5t10.5 93.5q-5 63 -25.5 93.5t-45.5 25.5z" />
    <glyph glyph-name="uniE692" unicode="&#xe692;" 
d="M853 178q-63 0 -107.5 -45t-44.5 -108t44.5 -108t107.5 -45t108 45t45 108t-45 108t-108 45zM954 65q-110 -108 -110 -109q-15 -14 -25 -5l-65 66q-10 10 0.5 21t20.5 1l54 -54l104 102q10 10 21 -1t0 -21zM348 792h234q18 0 31.5 15.5t13.5 37t-13.5 36.5t-33.5 15h-232
q-19 0 -32.5 -15t-13.5 -36.5t13.5 -37t32.5 -15.5zM836 225q40 0 76 -16v513q0 54 -29.5 86.5t-86.5 32.5h-106q2 -10 2 -18q0 -33 -20.5 -59.5t-48.5 -26.5h-323q-29 0 -49.5 26.5t-20.5 59.5q0 9 1 18h-106q-60 0 -83.5 -30.5t-23.5 -88.5v-696q0 -58 26.5 -87.5
t86.5 -29.5h557q-44 53 -44 123q0 80 56 136.5t136 56.5zM243 576h456q12 0 21.5 -10t10.5 -23q0 -13 -11 -24.5t-24 -11.5h-457q-12 0 -19.5 11t-7.5 25q0 13 9 23t22 10zM448 118h-209q-12 0 -19.5 10.5t-7.5 24.5q0 13 9 23.5t22 10.5h207q13 0 22.5 -10t10.5 -24
q0 -13 -11 -24t-24 -11zM237 310q-12 0 -22.5 12t-10.5 25t9 22t22 9h456q12 0 21.5 -8.5t10.5 -22.5q0 -13 -8.5 -25t-19.5 -12h-458zM237 310z" />
    <glyph glyph-name="uniE693" unicode="&#xe693;" 
d="M704 449l-256 386l-256 -386h125v-385h258v385h129z" />
    </font>
</defs>
</svg>
